<!--?xml version="1.0" standalone="no"?-->
              <svg id="sw-js-blob-svg" viewBox="0 0 100 100" xmlns="http://www.w3.org/2000/svg" version="1.1">
                    <defs> 
                        <linearGradient id="sw-gradient" x1="0" x2="1" y1="1" y2="0">
                            <stop id="stop1" stop-color="rgba(235.203, 220.136, 8.705, 1)" offset="0%"></stop>
                            <stop id="stop2" stop-color="rgba(251, 169.288, 31, 0.96)" offset="100%"></stop>
                        </linearGradient>
                    </defs>
                <path fill="url(#sw-gradient)" d="M20,-33C23.9,-28.5,23.9,-19.7,23.3,-13C22.8,-6.3,21.6,-1.7,22.8,4.6C24,10.9,27.4,18.8,24.8,20.9C22.1,23.1,13.4,19.4,6.1,22.2C-1.2,25.1,-7.1,34.5,-12.4,35.9C-17.8,37.3,-22.7,30.6,-28.8,24.4C-34.9,18.3,-42.2,12.7,-39.8,7.7C-37.4,2.7,-25.3,-1.6,-20.2,-7.8C-15.2,-14,-17.2,-21.9,-15,-27.3C-12.8,-32.6,-6.4,-35.3,0.8,-36.6C8,-37.8,16,-37.5,20,-33Z" width="100%" height="100%" transform="translate(50 50)" stroke-width="0" style="transition: all 0.3s ease 0s;" stroke="url(#sw-gradient)"></path>
              </svg>