<svg xmlns="http://www.w3.org/2000/svg" version="1.1" xmlns:xlink="http://www.w3.org/1999/xlink" xmlns:svgjs="http://svgjs.dev/svgjs" viewBox="0 0 1422 800"><defs><linearGradient x1="50%" y1="0%" x2="50%" y2="100%" id="ccchaos-grad"><stop stop-color="hsl(206, 75%, 49%)" stop-opacity="1" offset="0%"></stop><stop stop-color="hsl(331, 90%, 56%)" stop-opacity="1" offset="100%"></stop></linearGradient></defs><g stroke-width="2" stroke="url(#ccchaos-grad)" fill="none" stroke-linecap="round"><path d="M712.53 -11.71C719.51 -10.58 726.36 -8.97 733.06 -6.95 739.76 -4.74 746.31 -2.27 752.72 0.39 759.11 3.02 765.34 5.68 771.4 8.32 777.46 10.7 783.34 12.96 789.05 15.03 797.51 17.5 813.52 20.87 821.09 21.89 828.47 22.45 842.45 23.54 849.1 24.42 855.68 25.72 868.49 30.43 874.83 34.04 879.16 36.91 883.5 40.24 887.87 44.01 892.42 48.1 897.06 52.59 901.8 57.45 906.78 62.55 911.91 67.96 917.23 73.61 922.83 79.38 928.65 85.31 934.71 91.37 941.08 97.41 947.71 103.49 954.6 109.56 961.79 115.52 969.24 121.41 976.93 127.21 984.87 132.82 993.01 138.31 1001.3 143.67 1009.74 148.8 1018.26 153.8 1026.79 158.68 1035.31 163.33 1043.72 167.88 1051.95 172.35 1059.98 176.61 1067.69 180.83 1074.98 185.02 1081.86 189.05 1088.19 193.1 1093.89 197.18 1101.17 203.19 1110.74 215.54 1112.84 221.97 1113.01 228.52 1108.37 242.4 1103.9 249.76 1100.4 254.75 1096.48 259.9 1092.26 265.21 1088.08 270.55 1083.87 276.05 1079.76 281.7 1076.09 287.37 1072.77 293.18 1069.95 299.12 1067.91 305.09 1066.56 311.17 1065.99 317.36 1066.41 323.56 1067.68 329.87 1069.84 336.26 1072.99 342.66 1076.95 349.14 1081.65 355.7 1087.12 362.27 1093.13 368.9 1099.51 375.6 1106.26 382.3 1112.99 388.99 1119.51 395.67 1125.88 402.35 1131.72 409.03 1136.87 415.7 1141.43 422.39 1145.06 429.09 1147.68 435.8 1149.4 442.53 1150 449.3 1149.45 456.11 1147.94 462.97 1145.31 469.89 1141.62 476.88 1137.08 483.94 1131.63 491.09 1125.38 498.35 1118.54 505.7 1111.13 513.17 1103.28 520.78 1095.19 528.48 1086.89 536.34 1078.53 544.34 1070.27 552.44 1062.16 560.68 1054.28 569.06 1046.8 577.51 1039.71 586.07 1033.07 594.71 1026.99 603.38 1021.44 612.07 1016.42 620.75 1012.04 629.35 1008.18 637.87 1004.82 646.23 1002.05 654.38 999.72 662.29 997.76 669.87 996.29 677.1 995.08 683.89 994.08 690.17 984.08 715.25 970.67 710.81 965.02 708.98 958.66 708.43 943.91 711.87 935.62 716.45 929.83 720.88 923.79 726.26 917.53 732.57 911.14 739.82 904.56 747.82 897.82 756.42 890.99 765.53 884.03 774.87 876.96 784.22 869.84 793.42 862.63 802.15 855.36 810.16 848.07 817.33 840.73 823.35 833.37 828.03 825.99 831.36 818.6 833.12 811.22 833.26 803.83 831.96 796.45 829.12 789.09 824.85 781.73 819.56 774.4 813.25 767.09 806.2 759.8 798.93 752.53 791.53 745.29 784.33 738.06 777.87 730.86 772.21 723.69 767.63 716.52 764.52 709.47 762.85 702.53 762.66 695.59 764.08 688.75 766.86 682.01 770.83 675.27 775.98 668.62 781.87 662.06 788.2 655.49 794.91 649 801.46 642.6 807.58 636.17 813.2 629.81 817.86 623.53 821.36 617.21 823.73 610.96 824.65 604.76 824.08 598.52 822.16 592.34 818.75 586.2 813.96 580.01 808.02 573.86 800.96 567.75 792.98 561.59 784.35 555.45 775.2 549.35 765.76 543.19 756.28 537.06 746.91 530.96 737.83 524.81 729.26 518.68 721.27 512.59 713.97 506.45 707.51 500.34 701.86 494.28 697.04 488.19 693.15 482.15 690.05 476.18 687.68 467.23 685.59 449.77 684.6 441.31 685.03 433.03 685.79 417.26 686.31 409.82 685.57 402.68 683.93 389.45 677.29 383.39 672.23 379.5 668.24 375.8 663.7 372.29 658.64 368.86 653.2 365.61 647.3 362.54 641 359.51 634.4 356.65 627.46 353.95 620.25 351.27 612.83 348.72 605.19 346.32 597.41 343.9 589.49 341.61 581.48 339.44 573.41 337.23 565.27 335.13 557.13 333.14 549.01 331.1 540.86 329.17 532.77 327.35 524.73 325.48 516.71 323.73 508.77 322.09 500.92 320.42 493.09 318.87 485.35 317.46 477.71 316.02 470.1 314.73 462.58 313.59 455.16 312.43 447.76 311.44 440.45 310.61 433.23 309.78 426.03 309.12 418.91 308.64 411.88 308.16 404.86 307.85 397.91 307.72 391.05 307.6 384.19 307.66 377.48 307.89 370.94 308.14 364.39 308.57 357.99 309.17 351.75 309.79 345.5 310.59 339.41 311.56 333.46 312.57 327.5 313.76 321.69 315.13 316.03 317.34 307.59 322.76 291.37 325.96 283.56 329.39 275.81 337.14 260.75 341.41 253.37 344.3 248.39 347.32 243.45 350.46 238.55 353.57 233.52 356.78 228.5 360.09 223.46 363.33 218.28 366.65 213.05 370.04 207.77 373.36 202.31 376.73 196.78 380.16 191.16 383.51 185.36 386.92 179.46 390.38 173.46 393.76 167.29 397.21 161.03 400.73 154.7 404.18 148.23 407.72 141.72 411.34 135.19 414.93 128.6 418.62 122.04 422.41 115.55 426.2 109.09 430.12 102.77 434.16 96.62 438.23 90.62 442.44 84.86 446.8 79.4 451.2 74.18 455.77 69.3 460.48 64.81 465.26 60.62 470.21 56.84 475.31 53.49 480.48 50.44 485.81 47.8 491.3 45.57 496.86 43.57 502.57 41.92 508.41 40.58 514.33 39.35 520.38 38.33 526.55 37.48 532.79 36.56 539.14 35.7 545.59 34.83 552.1 33.74 558.69 32.55 565.37 31.22 572.09 29.55 578.89 27.69 585.74 25.62 592.62 23.2 599.56 20.58 606.54 17.81 613.54 14.75 620.58 11.62 627.63 8.46 634.71 5.2 641.8 2.05 648.89 -0.91 656 -3.76 663.11 -6.28 670.2 -8.4 677.31 -10.22 684.39 -11.54 691.45 -12.31 698.51 -12.68 705.54 -12.48 712.52 -11.71" stroke-dasharray="3 4" transform="rotate(0, 711, 400)" opacity="0.05"></path><path d="M704.69 3.27C711.28 4.41 717.74 6.02 724.07 8.04 730.4 10.24 736.59 12.72 742.64 15.4 748.69 18.05 754.59 20.76 760.35 23.45 768.91 27.1 785.27 33.14 793.09 35.4 800.77 36.93 815.49 38.8 822.58 39.38 829.61 39.8 843.37 41.38 850.18 42.85 857.12 44.95 871.29 51.53 878.63 56.1 883.73 59.61 888.95 63.53 894.31 67.84 899.88 72.42 905.63 77.34 911.56 82.56 917.73 87.97 924.11 93.6 930.7 99.42 937.54 105.31 944.59 111.3 951.85 117.37 959.32 123.4 966.97 129.43 974.77 135.43 982.72 141.3 990.77 147.11 998.88 152.83 1007.01 158.36 1015.12 163.79 1023.13 169.1 1031.03 174.22 1038.73 179.22 1046.15 184.12 1053.29 188.82 1060.04 193.44 1066.31 198 1072.14 202.38 1077.39 206.72 1082 211.05 1087.68 217.34 1094.35 229.9 1095.25 236.27 1094.49 242.63 1088.77 255.85 1084.18 262.75 1080.76 267.38 1077.04 272.16 1073.13 277.07 1069.33 281.99 1065.57 287.06 1061.97 292.27 1057.45 300.16 1051.8 316.66 1051.18 325.25 1051.91 331.02 1053.41 336.92 1055.69 342.95 1058.87 348.97 1062.77 355.12 1067.31 361.38 1072.55 367.64 1078.25 374.02 1084.29 380.51 1090.65 387.01 1096.98 393.54 1103.14 400.11 1109.17 406.69 1114.73 413.32 1119.69 419.99 1124.13 426.68 1127.74 433.42 1130.45 440.22 1132.38 447.05 1133.29 453.95 1133.17 460.93 1132.16 467.95 1130.13 475.05 1127.11 482.26 1123.29 489.51 1118.59 496.87 1113.11 504.33 1107.04 511.85 1100.36 519.48 1093.18 527.23 1085.71 535.02 1077.95 542.92 1070.03 550.91 1062.1 558.92 1054.2 567.01 1046.42 575.15 1038.9 583.28 1031.66 591.41 1024.74 599.51 1018.28 607.54 1012.23 615.47 1006.63 623.27 1001.57 630.89 996.98 638.3 992.84 645.44 989.25 652.29 986.08 658.79 983.29 664.86 977.62 679.75 972.21 694.49 970.85 696.62 959.15 692.86 944.12 691.61 938.31 694.22 934.17 697.11 929.72 700.81 924.98 705.36 920.09 710.84 914.94 717.12 909.55 724.15 904.02 731.9 898.28 740.18 892.35 748.84 886.32 757.77 880.13 766.72 873.79 775.48 867.38 783.93 860.84 791.77 854.21 798.81 847.53 804.95 840.77 809.93 833.94 813.6 827.09 816.01 820.18 816.97 813.24 816.43 806.29 814.63 799.31 811.46 792.32 807.05 785.32 801.77 778.31 795.63 771.3 788.88 764.3 781.99 757.29 775.03 750.29 768.29 743.29 762.25 736.3 756.96 729.32 752.64 722.34 749.67 715.45 747.99 708.65 747.66 701.84 748.8 695.12 751.18 688.49 754.66 681.84 759.27 675.27 764.6 668.78 770.41 662.27 776.65 655.83 782.85 649.46 788.75 643.06 794.32 636.72 799.12 630.44 802.95 624.14 805.85 617.88 807.49 611.66 807.8 605.42 806.91 599.21 804.65 593.04 801.06 586.83 796.36 580.66 790.52 574.51 783.7 568.33 776.12 562.17 767.88 556.05 759.17 549.88 750.22 543.74 741.16 537.64 732.16 531.5 723.41 525.39 715.02 519.33 707.11 513.24 699.82 507.2 693.18 501.21 687.22 495.21 682.07 489.28 677.64 483.42 673.9 477.57 670.95 471.81 668.61 466.15 666.81 457.76 665.22 441.68 664.11 434.03 664.04 426.66 664.07 412.88 662.9 406.52 661.35 400.47 659.01 389.46 651.47 384.48 646.25 379.78 640.07 371.31 625.08 367.49 616.45 365.01 610.34 362.67 603.95 360.45 597.32 358.22 590.51 356.11 583.52 354.1 576.38 352.06 569.13 350.12 561.78 348.28 554.36 346.38 546.87 344.59 539.36 342.89 531.84 341.13 524.29 339.47 516.75 337.92 509.26 336.32 501.75 334.82 494.3 333.44 486.91 332.03 479.53 330.74 472.22 329.58 464.98 328.39 457.75 327.35 450.6 326.45 443.54 325.54 436.49 324.79 429.51 324.2 422.63 323.61 415.75 323.19 408.95 322.95 402.24 322.71 395.53 322.66 388.98 322.8 382.59 322.95 376.19 323.29 369.95 323.82 363.86 324.37 357.76 325.12 351.8 326.06 345.98 327.62 337.29 331.78 320.53 334.37 312.42 337.21 304.35 343.87 288.59 347.65 280.84 350.24 275.62 352.99 270.44 355.87 265.28 358.75 260.03 361.75 254.77 364.86 249.51 367.94 244.13 371.12 238.72 374.38 233.26 377.58 227.66 380.86 222 384.2 216.27 387.46 210.4 390.78 204.45 394.14 198.42 397.42 192.25 400.75 186 404.13 179.7 407.42 173.28 410.77 166.83 414.16 160.35 417.49 153.81 420.89 147.3 424.35 140.83 427.77 134.38 431.27 128.04 434.85 121.83 438.42 115.73 442.08 109.83 445.86 104.18 449.64 98.72 453.54 93.55 457.57 88.72 463.73 82.05 476.8 71.04 483.73 66.75 490.9 63.24 506.05 58.2 514.02 56.49 522.23 55.02 539.35 52.43 548.23 51.01 554.25 49.78 560.36 48.42 566.55 46.9 572.8 45.03 579.12 42.97 585.5 40.71 591.93 38.11 598.41 35.34 604.94 32.43 611.5 29.28 618.09 26.07 624.72 22.87 631.36 19.61 638.03 16.48 644.7 13.55 651.4 10.76 658.09 8.31 664.77 6.26 671.47 4.52 678.15 3.27 684.8 2.56 691.46 2.24 698.09 2.48 704.68 3.26" stroke-dasharray="4 2" transform="rotate(4.5600000000000005, 711, 400)" opacity="0.09"></path><path d="M697.62 18.25C703.84 19.4 709.95 21.01 715.95 23.01 721.94 25.21 727.83 27.68 733.6 30.35 739.36 33.02 745.01 35.75 750.54 38.49 758.77 42.25 774.69 48.66 782.38 51.15 789.99 52.92 804.83 55.17 812.09 55.84 819.38 56.24 833.93 57.41 841.26 58.47 848.78 60.01 864.29 65.14 872.39 68.87 877.98 71.77 883.71 75.09 889.58 78.79 895.63 82.78 901.85 87.14 908.23 91.82 914.81 96.73 921.56 101.92 928.47 107.35 935.56 112.92 942.81 118.66 950.18 124.54 957.69 130.46 965.3 136.45 972.97 142.47 980.69 148.45 988.42 154.42 996.11 160.35 1003.73 166.17 1011.24 171.92 1018.56 177.59 1025.69 183.1 1032.54 188.52 1039.04 193.84 1045.22 198.99 1050.96 204.05 1056.19 209.04 1063.07 216.22 1072.94 230.09 1075.77 236.86 1077.06 243.44 1075.47 256.58 1072.78 263.22 1069.06 269.84 1059.53 283.46 1054.24 290.51 1049.22 297.65 1040.75 312.53 1037.86 320.29 1036.55 328.17 1038.35 344.63 1041.59 353.2 1044.77 358.95 1048.59 364.85 1052.97 370.88 1057.97 376.91 1063.37 383.09 1069.06 389.4 1075.05 395.72 1081 402.11 1086.79 408.58 1092.49 415.04 1097.77 421.59 1102.52 428.21 1106.82 434.83 1110.4 441.55 1113.17 448.34 1115.26 455.15 1116.44 462.05 1116.68 469.03 1116.14 476.04 1114.65 483.14 1112.25 490.32 1109.1 497.53 1105.12 504.83 1100.38 512.21 1095.06 519.6 1089.12 527.07 1082.65 534.59 1075.84 542.12 1068.68 549.69 1061.28 557.27 1053.79 564.82 1046.22 572.36 1038.67 579.85 1031.27 587.26 1024.02 594.58 1017 601.77 1010.31 608.8 1003.94 615.65 997.91 622.26 992.34 628.64 987.15 634.73 982.36 640.46 976.09 648.38 966.07 661.48 962.18 666.49 945.97 673.2 935.7 672.31 931.89 673.81 927.63 676.96 917.51 687.92 911.66 695.85 907.55 702.15 903.17 709.08 898.56 716.56 893.83 724.54 888.87 732.85 883.71 741.33 878.45 749.87 873 758.26 867.38 766.3 861.69 773.9 855.85 780.8 849.88 786.82 843.85 791.94 837.7 795.92 831.46 798.65 825.18 800.22 818.81 800.44 812.37 799.33 805.92 797.11 799.4 793.68 792.82 789.18 786.24 783.97 779.62 778.04 772.96 771.6 766.3 765.1 759.61 758.58 752.9 752.29 746.19 746.66 739.45 741.71 732.7 737.65 725.95 734.81 719.25 733.15 712.62 732.68 705.99 733.56 699.42 735.57 692.91 738.6 686.39 742.68 679.93 747.47 673.52 752.75 667.1 758.5 660.73 764.31 654.41 769.94 648.07 775.38 641.78 780.21 635.53 784.26 629.26 787.57 623.02 789.8 616.82 790.87 610.6 790.89 604.4 789.66 598.24 787.21 592.05 783.7 585.89 779.07 579.76 773.44 573.61 767 567.48 759.8 561.38 752 555.27 743.81 549.18 735.31 543.13 726.67 537.07 718.07 531.05 709.62 525.08 701.43 519.11 693.64 513.2 686.31 507.35 679.51 501.51 673.34 495.75 667.79 490.08 662.85 484.43 658.61 478.89 654.97 473.46 651.89 465.44 648.45 450.18 644.26 442.97 643.1 436.04 642.43 423.17 641.02 417.26 639.91 406.57 635.9 392.59 625.4 388.59 620.21 384.8 614.27 377.95 600.23 374.83 592.27 372.78 586.68 370.83 580.85 368.98 574.81 367.08 568.62 365.28 562.27 363.57 555.77 361.8 549.18 360.11 542.49 358.51 535.72 356.85 528.89 355.26 522.01 353.77 515.1 352.22 508.16 350.76 501.22 349.41 494.29 348 487.34 346.7 480.42 345.51 473.53 344.29 466.64 343.2 459.79 342.24 453 341.26 446.21 340.42 439.47 339.73 432.8 339.05 426.13 338.53 419.52 338.17 412.97 337.84 406.43 337.69 400.02 337.72 393.75 337.78 387.48 338.04 381.33 338.49 375.32 338.98 369.29 339.67 363.38 340.55 357.58 342.05 348.91 346.13 332.01 348.7 323.75 350.53 318.22 352.54 312.75 354.73 307.33 356.97 301.85 359.37 296.41 361.94 290.99 364.52 285.49 367.25 280 370.12 274.5 372.99 268.9 375.97 263.29 379.06 257.64 382.13 251.89 385.28 246.08 388.52 240.23 391.7 234.27 394.94 228.24 398.25 222.16 401.48 215.97 404.76 209.73 408.09 203.44 411.33 197.07 414.61 190.66 417.93 184.25 421.17 177.79 424.45 171.34 427.77 164.94 431.01 158.55 434.3 152.25 437.65 146.06 440.93 139.96 444.28 134.03 447.71 128.3 451.09 122.73 454.56 117.41 458.12 112.38 463.48 105.33 474.74 93.32 480.68 88.44 486.77 84.3 499.66 78.12 506.47 75.94 513.48 74.15 528.23 71.42 535.95 70.2 543.87 68.71 560.32 64.89 568.83 62.37 574.57 60.29 580.4 58.02 586.29 55.57 592.23 52.8 598.23 49.89 604.28 46.86 610.37 43.63 616.5 40.38 622.66 37.17 628.85 33.92 635.07 30.83 641.31 27.96 647.56 25.25 653.82 22.88 660.09 20.91 666.37 19.26 672.64 18.09 678.89 17.44 685.16 17.17 691.4 17.45 697.61 18.25" stroke-dasharray="5 1" transform="rotate(9.120000000000001, 711, 400)" opacity="0.13"></path><path d="M692.2 33.24C698.08 34.4 703.87 35.99 709.59 37.97 715.3 40.15 720.93 42.59 726.47 45.25 732.01 47.91 737.47 50.66 742.84 53.43 750.87 57.3 766.56 64.05 774.25 66.76 779.37 68.17 784.44 69.39 789.47 70.44 799.65 71.64 809.74 72.48 819.84 73.27 830.26 73.79 840.86 75.01 851.73 77.23 863.1 80.18 874.91 84.59 887.21 90.49 900.1 97.48 913.52 105.89 927.41 115.52 941.73 125.87 956.32 137.03 970.94 148.71 985.46 160.48 999.51 172.38 1012.71 184.2 1024.96 195.63 1035.71 206.81 1044.56 217.69 1051.67 228.01 1056.44 238.06 1058.68 247.93 1059.07 257.3 1057.12 266.62 1053.1 276 1048.18 285.05 1042.15 294.32 1035.65 303.88 1031.3 310.99 1024.34 325.67 1022.18 333.27 1021.49 340.95 1024.12 356.94 1027.51 365.26 1030.68 370.84 1034.4 376.57 1038.62 382.43 1043.38 388.29 1048.48 394.3 1053.83 400.46 1059.45 406.61 1065.04 412.85 1070.48 419.17 1075.84 425.48 1080.84 431.88 1085.37 438.36 1089.53 444.84 1093.04 451.4 1095.84 458.04 1098.05 464.69 1099.45 471.41 1100.01 478.2 1099.87 484.99 1098.87 491.85 1097.03 498.77 1094.52 505.69 1091.22 512.65 1087.18 519.64 1077.48 533.57 1065.59 547.52 1052.18 561.3 1038.14 574.75 1023.77 587.75 1009.64 600.01 996.41 611.52 984.2 621.9 973.22 630.86 963.87 638.67 955.84 644.78 949.01 649.05 941.38 652.97 930.36 653.4 925.37 652.52 922.16 653.36 918.3 655.52 913.67 659.61 908.82 666.47 903.03 675.84 896.28 687.7 889.18 701.89 881.14 717.54 872.23 733.67 863.01 749.4 853.03 763.32 842.4 774.17 834.24 779.82 817.2 783.79 808.38 781.98 802.44 779.42 796.41 775.81 790.3 771.29 784.17 766.18 777.97 760.48 771.7 754.37 765.43 748.26 759.1 742.18 752.72 736.32 746.33 731.08 739.89 726.48 733.41 722.67 726.93 719.96 720.48 718.3 714.06 717.72 707.65 718.37 701.27 720.03 694.92 722.63 688.57 726.22 682.25 730.48 675.97 735.24 669.69 740.5 663.43 745.88 657.21 751.19 650.97 756.43 644.77 761.21 638.59 765.37 632.41 768.95 626.25 771.64 620.11 773.34 607.81 773.98 595.6 770.14 583.51 762.11 571.39 750.84 559.39 736.77 547.56 720.98 535.75 704.65 524.16 688.55 512.87 673.52 501.69 660.31 490.89 649.09 480.55 639.96 470.45 633.19 460.9 628.16 451.97 624.43 443.37 622.17 435.44 620.3 428.23 618.33 421.35 616.6 415.14 614.05 409.63 610.42 404.31 606.28 399.57 600.79 395.39 593.99 391.2 586.48 387.42 577.75 384.04 567.98 380.46 557.68 377.18 546.56 374.2 534.84 372.6 528.87 371.08 522.79 369.63 516.62 368.12 510.41 366.68 504.13 365.33 497.8 363.92 491.44 362.6 485.05 361.39 478.65 360.13 472.23 358.99 465.81 357.97 459.39 356.92 452.97 356.01 446.56 355.24 440.17 354.47 433.77 353.85 427.4 353.4 421.05 352.97 414.71 352.73 408.46 352.66 402.31 352.64 396.15 352.82 390.09 353.18 384.11 353.6 378.13 354.22 372.22 355.04 366.4 355.93 360.55 357.01 354.77 358.3 349.05 359.65 343.3 361.2 337.6 362.94 331.94 364.74 326.24 366.73 320.56 368.89 314.91 373.36 303.43 378.48 291.94 384.15 280.39 389.84 268.52 395.97 256.52 402.44 244.36 408.71 231.9 415.23 219.31 421.91 206.67 428.28 193.94 434.78 181.35 441.41 169.08 447.71 157.13 454.19 145.84 460.86 135.44 467.32 125.82 474.07 117.39 481.15 110.3 488.17 104.17 495.6 99.38 503.47 95.86 511.41 92.9 519.83 90.78 528.73 89.23 537.76 87.32 547.27 85.32 557.21 82.94 567.29 79.4 577.77 75.14 588.57 70.17 594.02 67.26 599.54 64.22 605.12 61.1 610.73 57.82 616.39 54.55 622.1 51.35 627.83 48.14 633.61 45.11 639.41 42.32 645.22 39.7 651.06 37.42 656.92 35.55 662.79 33.99 668.67 32.91 674.55 32.32 680.43 32.11 686.32 32.42 692.19 33.24" stroke-dasharray="1 1" transform="rotate(13.68, 711, 400)" opacity="0.16"></path><path d="M689.09 48.23C700.24 50.82 711.19 54.93 721.92 60.09 732.66 65.36 743.22 70.8 753.59 76.01 764.03 80.18 774.37 83.66 784.64 86.41 795.08 87.95 805.58 89.03 816.19 89.91 827.11 90.33 838.28 91.21 849.75 92.85 861.64 94.97 873.92 98.35 886.61 103.08 899.7 108.78 913.14 115.89 926.84 124.26 940.7 133.48 954.55 143.67 968.15 154.6 981.38 165.87 993.89 177.5 1005.34 189.28 1015.72 200.93 1024.51 212.5 1031.41 223.89 1036.72 234.89 1039.86 245.66 1040.76 256.23 1040.15 266.36 1037.59 276.38 1033.37 286.34 1028.61 295.96 1023.09 305.67 1017.38 315.52 1012.72 325.17 1009 335.09 1006.73 345.34 1006.87 355.48 1009.08 366.03 1013.46 377.03 1020.32 387.99 1028.89 399.44 1038.61 411.41 1049.28 423.39 1059.41 435.62 1068.26 448.07 1075.85 460.53 1080.94 473.21 1083.17 486.02 1082.96 498.79 1079.67 511.63 1073.51 524.4 1065.23 537 1054.76 549.36 1042.65 561.29 1029.7 572.78 1016.13 583.57 1002.47 593.42 989.33 602.52 976.83 610.4 965.25 616.87 954.96 622.42 945.8 626.48 937.73 629.08 928.08 631.48 913.63 632.69 907.58 634.1 903.94 636.95 899.95 641.37 895.44 647.75 890.92 656.63 885.67 667.65 879.66 680.59 873.44 695.18 866.39 710.51 858.55 725.66 850.47 739.89 841.64 751.95 832.14 760.84 822.46 766.31 812.19 767.53 801.4 764.41 790.52 758.05 779.2 748.6 767.5 737.2 755.77 726 743.72 715.7 731.37 707.68 719.03 703.61 706.71 703.36 694.45 706.77 682.18 713.81 669.98 722.83 657.84 732.53 645.7 742.34 633.63 750.26 621.64 755.28 609.64 757.35 597.73 755.44 585.95 749.64 574.18 740.7 562.57 728.77 551.15 714.72 539.83 699.58 528.75 683.99 518.02 668.77 507.46 654.65 497.3 641.95 487.64 630.94 478.25 621.94 469.42 614.64 461.22 608.77 453.34 604.52 446.11 601.08 439.56 598.02 433.31 595.64 427.69 592.97 422.71 589.72 417.88 586.37 413.57 582.06 409.77 576.71 405.91 570.92 402.42 564.04 399.28 556.13 395.91 547.79 392.79 538.55 389.93 528.57 386.76 518.31 383.84 507.46 381.2 496.18 378.31 484.77 375.77 473.05 373.64 461.12 371.42 449.15 369.72 437.04 368.63 424.83 367.63 412.63 367.39 400.61 367.9 388.78 368.66 376.92 370.24 365.2 372.62 353.6 375.28 341.91 378.74 330.25 382.92 318.59 387.31 306.77 392.36 294.88 397.96 282.89 403.6 270.72 409.68 258.44 416.1 246.07 422.36 233.61 428.86 221.15 435.53 208.82 441.89 196.63 448.38 184.79 454.98 173.48 461.24 162.67 467.64 152.68 474.18 143.71 480.47 135.55 486.98 128.59 493.75 122.89 500.38 118.01 507.37 114.27 514.71 111.58 522.04 109.17 529.8 107.33 537.97 105.8 546.22 103.71 554.9 101.36 563.98 98.53 573.17 94.53 582.74 89.84 592.66 84.5 602.66 78.22 612.96 71.73 623.51 65.42 634.11 59.21 644.92 53.99 655.87 50.19 666.84 47.59 677.92 46.91 689.08 48.23" stroke-dasharray="0 3" transform="rotate(18.240000000000002, 711, 400)" opacity="0.20"></path><path d="M688.66 63.22C699.3 65.78 709.85 69.81 720.3 74.88 730.77 80.11 741.17 85.58 751.53 90.9 761.96 95.31 772.4 99.11 782.9 102.21 793.56 104.13 804.36 105.53 815.34 106.6 826.58 107.06 838.09 107.77 849.88 108.99 861.97 110.46 874.37 112.96 887.04 116.61 899.93 121.09 912.98 126.88 926.06 133.92 939.07 141.83 951.84 150.81 964.1 160.68 975.82 171.07 986.64 182.03 996.25 193.37 1004.78 204.8 1011.71 216.36 1016.83 227.9 1020.53 239.24 1022.31 250.46 1022.15 261.53 1020.81 272.28 1017.89 282.9 1013.69 293.41 1009.25 303.64 1004.35 313.85 999.47 324.1 995.72 334.15 992.93 344.34 991.51 354.73 992.3 365.01 994.92 375.56 999.43 386.43 1006.12 397.26 1014.26 408.46 1023.38 420.03 1033.35 431.61 1042.83 443.3 1051.17 455.07 1058.48 466.82 1063.58 478.62 1066.17 490.36 1066.65 502.03 1064.33 513.55 1059.38 524.78 1052.44 535.79 1043.36 546.34 1032.6 556.25 1020.86 565.72 1008.26 574.35 995.29 581.96 982.52 588.93 970.06 594.74 958.2 599.31 947.31 603.27 937.31 606.08 928.23 607.85 920.33 609.47 913.26 610.52 906.88 611.35 901.43 612.97 896.37 615.12 891.52 618.26 887.18 623.19 882.73 629.74 877.99 638.11 873.42 648.58 868.34 660.73 862.69 674.22 856.97 688.67 850.57 703.26 843.49 717.12 836.27 729.66 828.35 739.82 819.79 746.81 811.09 750.61 801.79 750.55 791.93 746.65 782 740.04 771.57 730.84 760.7 720.08 749.79 709.68 738.49 700.16 726.83 692.69 715.17 688.77 703.45 688.25 691.72 691 680 697.1 668.27 705.13 656.58 713.99 644.9 723.27 633.26 731.17 621.69 736.76 610.16 739.99 598.71 739.76 587.4 736 576.16 729.32 565.09 719.62 554.26 707.56 543.55 694.02 533.14 679.48 523.1 664.69 513.27 650.35 503.87 636.83 494.98 624.51 486.37 613.74 478.32 604.44 470.87 596.52 463.74 590.18 457.22 584.86 451.34 580.24 445.7 576.57 440.65 573.05 436.18 569.39 431.8 565.99 427.89 562.04 424.42 557.38 420.85 552.57 417.61 546.89 414.66 540.32 411.45 533.47 408.45 525.77 405.67 517.28 402.57 508.56 399.67 499.16 397.02 489.18 394.1 479.08 391.49 468.51 389.26 457.53 386.93 446.52 385.1 435.17 383.86 423.54 382.71 411.91 382.31 400.28 382.66 388.66 383.27 377.04 384.7 365.4 386.92 353.76 389.46 342.06 392.78 330.31 396.82 318.5 401.11 306.6 406.04 294.62 411.53 282.57 417.1 270.47 423.11 258.33 429.46 246.23 435.7 234.21 442.18 222.36 448.84 210.81 455.23 199.58 461.74 188.87 468.34 178.85 474.62 169.43 481 160.92 487.5 153.46 493.7 146.77 500.08 141.19 506.66 136.76 513.04 132.92 519.71 130.01 526.66 127.88 533.54 125.78 540.77 124.01 548.37 122.31 555.97 119.9 563.96 117.11 572.33 113.77 580.74 109.3 589.53 104.2 598.66 98.56 607.83 92.12 617.34 85.61 627.12 79.38 636.93 73.37 646.99 68.39 657.26 64.82 667.54 62.43 678.02 61.87 688.65 63.21" stroke-dasharray="1 3" transform="rotate(22.8, 711, 400)" opacity="0.24"></path><path d="M690.98 78.2C701.17 80.73 711.37 84.66 721.58 89.62 731.81 94.79 742.08 100.25 752.39 105.65 762.78 110.26 773.27 114.35 783.88 117.8 794.63 120.12 805.56 121.89 816.69 123.25 828.01 123.89 839.57 124.58 851.35 125.56 863.3 126.58 875.45 128.38 887.71 131.13 900.03 134.5 912.31 139.04 924.41 144.75 936.28 151.27 947.69 158.89 958.42 167.48 968.5 176.7 977.57 186.65 985.37 197.15 992.13 207.94 997.36 219.04 1000.92 230.3 1003.28 241.57 1003.96 252.85 1003.02 264.07 1001.21 275.13 998.17 286.1 994.17 296.96 990.19 307.63 985.97 318.24 981.95 328.8 979.08 339.21 977.17 349.66 976.52 360.17 977.87 370.6 980.83 381.16 985.41 391.88 991.91 402.57 999.62 413.47 1008.15 424.56 1017.44 435.66 1026.28 446.69 1034.12 457.62 1041.11 468.53 1046.18 479.29 1049.04 489.8 1050.09 500.22 1048.63 510.29 1044.78 519.91 1039.11 529.29 1031.38 538.06 1021.97 546.09 1011.5 553.75 1000.01 560.53 987.93 566.35 975.77 571.72 963.64 576.1 951.81 579.5 940.65 582.64 930.13 585 920.34 586.77 911.51 588.8 903.41 590.72 895.98 592.85 889.43 596.04 883.34 600.06 877.57 605.23 872.39 612.12 867.26 620.5 862.06 630.42 857.13 641.97 851.9 654.7 846.29 668.19 840.73 682.06 834.66 695.54 828.04 707.87 821.36 718.61 814.09 726.89 806.23 732.09 798.3 734.38 789.79 733.22 780.74 728.71 771.63 721.99 762.02 713.13 751.94 703.03 741.82 693.41 731.28 684.64 720.34 677.7 709.4 673.94 698.35 673.18 687.24 675.33 676.16 680.54 665.03 687.6 653.91 695.59 642.82 704.25 631.76 711.96 620.76 717.88 609.83 721.99 599 723.16 588.33 721.22 577.75 716.64 567.38 709.16 557.27 699.22 547.32 687.57 537.69 674.52 528.45 660.72 519.43 646.79 510.86 633.13 502.8 620.14 495.01 608.2 487.76 597.38 481.1 587.74 474.7 579.47 468.87 572.25 463.64 565.88 458.59 560.57 454.06 555.71 450.05 551.05 444.3 544.76 434.48 530.74 430.14 522.3 427.05 516.35 424.14 509.67 421.4 502.26 418.33 494.72 415.44 486.48 412.76 477.61 409.81 468.65 407.14 459.11 404.83 449.06 402.41 438.97 400.47 428.42 399.08 417.44 397.81 406.46 397.26 395.33 397.44 384.09 397.91 372.86 399.17 361.51 401.22 350.07 403.6 338.62 406.75 327.07 410.63 315.45 414.76 303.82 419.54 292.15 424.89 280.47 430.34 268.86 436.25 257.32 442.52 245.96 448.71 234.81 455.16 223.97 461.8 213.6 468.21 203.64 474.74 194.33 481.37 185.8 487.7 177.88 494.12 170.89 500.62 164.9 506.82 159.56 513.16 155.2 519.64 151.79 525.9 148.74 532.37 146.39 539.08 144.56 545.65 142.54 552.51 140.62 559.68 138.59 566.8 135.75 574.26 132.46 582.06 128.59 589.85 123.69 597.99 118.22 606.47 112.33 614.96 105.82 623.78 99.35 632.91 93.26 642.04 87.49 651.46 82.77 661.15 79.45 670.84 77.26 680.78 76.83 690.97 78.2" stroke-dasharray="2 4" transform="rotate(27.36, 711, 400)" opacity="0.28"></path><path d="M695.76 93.19C705.55 95.68 715.44 99.49 725.4 104.31 735.38 109.38 745.47 114.8 755.67 120.24 765.94 125.02 776.35 129.36 786.9 133.14 797.57 135.88 808.41 138.05 819.43 139.77 830.56 140.69 841.86 141.51 853.28 142.44 864.78 143.21 876.33 144.53 887.83 146.56 899.25 149 910.47 152.44 921.33 156.91 931.83 162.08 941.73 168.3 950.83 175.5 959.25 183.35 966.6 192.03 972.7 201.37 977.86 211.15 981.6 221.39 983.85 231.96 985.14 242.7 985.01 253.6 983.55 264.57 981.52 275.53 978.55 286.47 974.9 297.36 971.47 308.16 968 318.89 964.82 329.55 962.8 340.13 961.69 350.66 961.74 361.17 963.57 371.62 966.8 382.08 971.42 392.56 977.68 403.03 984.97 413.54 992.93 424.07 1001.55 434.6 1009.76 444.9 1017.1 454.93 1023.75 464.93 1028.73 474.6 1031.8 483.88 1033.31 493.06 1032.6 501.76 1029.73 509.89 1025.23 517.82 1018.79 525.09 1010.7 531.61 1001.53 537.86 991.25 543.32 980.2 547.96 968.87 552.38 957.31 556.06 945.81 559.06 934.7 562.11 923.98 564.76 913.78 567.21 904.32 570.21 895.46 573.46 887.18 577.23 879.68 582.15 872.64 588.02 865.98 595.05 859.91 603.57 854.02 613.34 848.19 624.3 842.72 636.38 837.11 649.15 831.29 662.15 825.62 675.04 819.59 687.13 813.16 697.77 806.75 706.69 799.87 713.14 792.5 716.7 785.1 717.67 777.2 715.59 768.81 710.65 760.37 703.93 751.47 695.46 742.11 686.04 732.72 677.19 722.91 669.14 712.71 662.72 702.5 659.12 692.16 658.15 681.75 659.75 671.36 664.14 660.93 670.25 650.49 677.36 640.1 685.31 629.73 692.68 619.45 698.72 609.25 703.43 599.17 705.72 589.26 705.33 579.47 702.66 569.91 697.28 560.63 689.48 551.52 679.89 542.75 668.64 534.38 656.26 526.23 643.32 518.53 630.14 511.32 617.15 504.35 604.7 497.9 592.97 492 582.11 486.3 572.31 481.13 563.44 476.5 555.43 471.98 548.41 467.93 542.01 464.32 536.03 460.69 530.71 457.41 525.49 454.45 520.21 451.32 515.22 448.4 509.91 445.69 504.19 442.68 498.52 439.81 492.3 437.09 485.5 434.04 478.66 431.14 471.21 428.42 463.15 425.44 455.05 422.72 446.36 420.33 437.12 417.85 427.85 415.81 418.06 414.31 407.77 412.92 397.49 412.24 386.98 412.27 376.29 412.58 365.62 413.67 354.78 415.53 343.83 417.72 332.91 420.68 321.89 424.35 310.83 428.3 299.85 432.89 288.87 438.05 277.99 443.35 267.26 449.1 256.71 455.24 246.47 461.35 236.52 467.74 227.01 474.33 218.06 480.74 209.56 487.3 201.76 493.95 194.76 500.34 188.32 506.81 182.74 513.36 178.06 519.62 173.85 525.98 170.45 532.45 167.78 538.68 165.25 545.07 163.17 551.64 161.38 558.04 159.22 564.68 156.98 571.57 154.49 578.36 151.15 585.45 147.33 592.83 142.96 600.16 137.65 607.82 131.89 615.79 125.84 623.74 119.31 632.02 112.95 640.61 107.06 649.19 101.57 658.09 97.14 667.28 94.08 676.47 92.11 685.96 91.8 695.76 93.19" stroke-dasharray="3 4" transform="rotate(31.92, 711, 400)" opacity="0.32"></path><path d="M702.41 108.18C711.84 110.6 721.4 114.3 731.08 118.96 740.78 123.9 750.62 129.24 760.59 134.67 770.61 139.57 780.78 144.13 791.09 148.21 801.46 151.34 811.98 153.94 822.61 156.06 833.28 157.36 844.04 158.44 854.8 159.48 865.54 160.19 876.2 161.23 886.67 162.78 896.96 164.53 906.9 167.07 916.35 170.47 925.38 174.4 933.72 179.3 941.2 185.11 948 191.52 953.77 198.79 958.35 206.79 962.11 215.27 964.62 224.34 965.84 233.85 966.33 243.66 965.65 253.77 963.93 264.07 961.88 274.48 959.15 284.99 955.98 295.51 953.17 306.06 950.46 316.57 948.11 327.02 946.89 337.45 946.51 347.82 947.17 358.09 949.4 368.35 952.83 378.54 957.43 388.64 963.44 398.74 970.3 408.76 977.7 418.66 985.68 428.56 993.29 438.09 1000.12 447.23 1006.41 456.34 1011.26 465.01 1014.44 473.19 1016.33 481.29 1016.26 488.84 1014.27 495.79 1010.82 502.62 1005.59 508.8 998.77 514.32 990.9 519.71 981.86 524.45 971.94 528.58 961.6 532.7 950.84 536.35 939.91 539.64 929.15 543.22 918.54 546.71 908.25 550.31 898.47 554.63 889.14 559.42 880.27 564.88 872.04 571.45 864.23 578.95 856.8 587.48 849.91 597.18 843.27 607.83 836.79 619.26 830.68 631.34 824.57 643.65 818.39 655.74 812.41 667.35 806.22 677.85 799.77 686.71 793.4 693.83 786.69 698.59 779.61 700.67 772.53 700.5 765.05 697.7 757.17 692.48 749.26 685.87 740.94 677.85 732.21 669.12 723.48 661.01 714.35 653.65 704.86 647.73 695.37 644.3 685.77 643.15 676.09 644.26 666.45 647.88 656.76 653.1 647.09 659.33 637.47 666.51 627.9 673.41 618.43 679.37 609.04 684.43 599.79 687.54 590.74 688.43 581.82 687.4 573.14 683.94 564.75 678.2 556.54 670.72 548.67 661.44 541.2 650.8 533.93 639.29 527.09 627.15 520.72 614.76 514.54 602.47 508.85 590.49 503.65 579.02 498.61 568.25 494.03 558.19 489.92 548.86 485.87 540.36 482.22 532.49 478.94 525.15 475.6 518.47 472.54 512.09 469.75 505.86 466.74 500.03 463.92 494.14 461.26 488.06 458.3 482.15 455.45 475.91 452.71 469.27 449.66 462.68 446.74 455.61 443.99 448.05 440.99 440.48 438.23 432.39 435.78 423.8 433.24 415.2 431.13 406.1 429.54 396.52 428.06 386.94 427.25 377.13 427.13 367.14 427.29 357.18 428.2 347.06 429.86 336.87 431.85 326.72 434.59 316.53 438.02 306.37 441.74 296.33 446.1 286.37 451.03 276.61 456.12 267.05 461.69 257.78 467.65 248.91 473.63 240.35 479.91 232.3 486.41 224.86 492.79 217.84 499.33 211.51 505.99 205.95 512.42 200.81 518.95 196.42 525.54 192.79 531.88 189.43 538.3 186.67 544.81 184.43 551.08 182.12 557.47 180.05 564 178.07 570.35 175.58 576.88 172.89 583.61 169.86 590.21 166 597.06 161.65 604.17 156.82 611.19 151.19 618.51 145.22 626.11 139.08 633.66 132.62 641.53 126.43 649.71 120.81 657.85 115.63 666.32 111.51 675.1 108.72 683.87 106.96 692.97 106.77 702.41 108.18" stroke-dasharray="4 0" transform="rotate(36.480000000000004, 711, 400)" opacity="0.35"></path><path d="M710.11 123.17C719.19 125.52 728.4 129.07 737.73 133.56 747.09 138.35 756.58 143.57 766.18 148.95 775.82 153.91 785.58 158.64 795.43 162.98 805.32 166.48 815.28 169.49 825.27 172.04 835.25 173.77 845.2 175.21 855.06 176.5 864.82 177.33 874.38 178.32 883.64 179.61 892.64 180.91 901.2 182.8 909.19 185.35 916.74 188.26 923.55 191.99 929.49 196.52 934.84 201.56 939.2 207.41 942.48 214 945.11 221.05 946.65 228.75 947.12 236.98 947.07 245.56 946.1 254.54 944.33 263.82 942.44 273.31 940.09 282.99 937.48 292.77 935.34 302.66 933.38 312.59 931.82 322.49 931.32 332.44 931.6 342.33 932.78 352.13 935.34 361.94 938.92 371.65 943.45 381.21 949.19 390.79 955.62 400.21 962.47 409.43 969.84 418.65 976.85 427.45 983.18 435.78 989.09 444.1 993.77 451.92 997.01 459.24 999.17 466.51 999.64 473.25 998.4 479.43 995.9 485.56 991.76 491.15 986.16 496.21 979.54 501.28 971.75 505.89 963.03 510.11 953.78 514.5 943.98 518.66 933.84 522.73 923.67 527.24 913.46 531.9 903.37 536.87 893.6 542.59 884.1 548.88 874.94 555.87 866.25 563.81 857.9 572.55 849.9 582.09 842.36 592.46 835.07 603.43 828 614.78 821.28 626.36 814.65 637.78 808.04 648.63 801.67 658.73 795.2 667.53 788.6 674.63 782.12 680.04 775.42 683.24 768.46 684.05 761.55 682.94 754.34 679.59 746.81 674.23 739.29 667.82 731.44 660.31 723.26 652.27 715.08 644.88 706.58 638.19 697.77 632.74 688.96 629.48 680.07 628.2 671.16 628.87 662.26 631.78 653.36 636.15 644.5 641.51 635.69 647.89 626.95 654.21 618.34 659.92 609.81 665.09 601.44 668.76 593.3 670.62 585.26 670.95 577.49 669.16 570.02 665.32 562.7 659.86 555.73 652.61 549.13 643.88 542.71 634.12 536.68 623.42 531.09 612.15 525.65 600.63 520.64 589.03 516.08 577.59 511.61 566.49 507.54 555.83 503.87 545.68 500.21 536.13 496.88 527.12 493.86 518.62 490.73 510.7 487.83 503.16 485.14 495.91 482.23 489.07 479.45 482.34 476.81 475.63 473.86 469.15 471 462.54 468.25 455.72 465.19 449.01 462.24 442 459.46 434.64 456.44 427.31 453.66 419.6 451.17 411.5 448.6 403.39 446.44 394.88 444.76 385.97 443.2 377.07 442.29 368 442.03 358.82 442.04 349.66 442.78 340.41 444.23 331.16 446 321.97 448.49 312.81 451.66 303.77 455.13 294.86 459.22 286.13 463.87 277.68 468.71 269.43 474.04 261.55 479.77 254.12 485.56 246.98 491.67 240.37 498.03 234.36 504.32 228.68 510.8 223.64 517.41 219.27 523.86 215.17 530.4 211.67 537.03 208.76 543.44 205.92 549.92 203.49 556.48 201.37 562.82 199 569.26 196.7 575.81 194.35 582.17 191.4 588.67 188.17 595.34 184.58 601.86 180.2 608.59 175.39 615.53 170.17 622.37 164.3 629.46 158.21 636.8 152.08 644.09 145.77 651.65 139.83 659.51 134.5 667.32 129.67 675.44 125.89 683.88 123.37 692.29 121.83 701.03 121.75 710.11 123.17" stroke-dasharray="5 0" transform="rotate(41.04, 711, 400)" opacity="0.39"></path><path d="M717.92 138.15C726.62 140.43 735.44 143.83 744.35 148.12 753.28 152.73 762.31 157.79 771.41 163.08 780.53 168.05 789.72 172.88 798.94 177.43 808.15 181.25 817.36 184.65 826.52 187.62 835.61 189.81 844.59 191.68 853.38 193.32 862.01 194.43 870.35 195.55 878.31 196.8 885.99 197.91 893.16 199.4 899.71 201.37 908.56 204.92 921.52 215.89 925.37 223.41 927.12 229.05 927.97 235.33 927.95 242.18 927.61 249.37 926.56 257.03 924.93 265.06 923.34 273.34 921.47 281.9 919.48 290.66 918.01 299.56 916.78 308.59 915.96 317.66 916.11 326.81 916.96 335.95 918.58 345.04 921.39 354.16 925.04 363.19 929.47 372.08 934.93 380.99 940.92 389.74 947.25 398.28 954.01 406.81 960.45 414.93 966.29 422.59 971.81 430.25 976.27 437.45 979.51 444.19 981.87 450.92 982.76 457.19 982.16 463.01 980.48 468.86 977.34 474.3 972.84 479.39 967.42 484.58 960.86 489.52 953.35 494.28 945.26 499.31 936.53 504.32 927.33 509.44 917.96 515.04 908.39 520.93 898.77 527.24 889.3 534.22 879.94 541.77 870.77 549.92 861.92 558.8 853.32 568.28 844.99 578.28 837.02 588.77 829.28 599.52 821.75 610.3 814.54 620.96 807.46 631.16 800.47 640.54 793.7 649 786.94 656.08 780.14 661.48 773.47 665.31 766.68 667.15 759.76 666.88 752.9 665.03 745.84 661.31 738.58 655.94 731.34 649.82 723.86 642.85 716.15 635.5 708.43 628.81 700.48 622.74 692.3 617.75 684.12 614.68 675.92 613.28 667.74 613.56 659.57 615.83 651.45 619.4 643.4 623.92 635.39 629.48 627.49 635.14 619.75 640.46 612.08 645.55 604.59 649.5 597.34 652.04 590.18 653.43 583.29 653.03 576.7 650.84 570.23 647.24 564.09 641.94 558.32 635.16 552.66 627.3 547.38 618.34 542.49 608.56 537.7 598.29 533.28 587.62 529.25 576.81 525.25 566.02 521.6 555.38 518.29 545 514.92 534.97 511.83 525.32 508.99 516.07 506.01 507.25 503.21 498.8 500.58 490.67 497.7 482.9 494.94 475.35 492.28 467.95 489.32 460.79 486.45 453.65 483.66 446.48 480.59 439.44 477.63 432.27 474.82 424.93 471.8 417.64 469.01 410.12 466.49 402.35 463.92 394.6 461.72 386.57 459.99 378.29 458.37 370.01 457.36 361.68 456.98 353.33 456.85 345 457.41 336.69 458.64 328.46 460.19 320.3 462.42 312.26 465.3 304.42 468.48 296.7 472.26 289.24 476.6 282.11 481.15 275.17 486.18 268.62 491.62 262.54 497.17 256.68 503.05 251.33 509.21 246.53 515.34 241.94 521.69 237.89 528.19 234.38 534.59 230.98 541.1 228.03 547.71 225.48 554.15 222.84 560.67 220.43 567.26 218.15 573.66 215.52 580.15 212.81 586.73 209.95 593.14 206.48 599.66 202.69 606.31 198.54 612.82 193.7 619.49 188.5 626.34 183 633.08 177 640.03 170.89 647.19 164.86 654.29 158.79 661.63 153.14 669.23 148.16 676.78 143.71 684.61 140.27 692.73 138.03 700.82 136.71 709.22 136.74 717.92 138.15" stroke-dasharray="5 4" transform="rotate(45.6, 711, 400)" opacity="0.43"></path><path d="M724.88 153.14C733.17 155.33 741.54 158.56 749.95 162.63 758.36 167.04 766.83 171.91 775.31 177.06 783.79 181.99 792.27 186.86 800.71 191.54 809.12 195.63 817.44 199.36 825.63 202.73 833.73 205.38 841.63 207.71 849.26 209.77 856.71 211.26 863.81 212.67 870.47 214.08 879.79 215.89 894.95 220.98 900.49 224.73 904.68 229.35 908.65 242.02 908.59 250.02 908.17 255.82 907.24 262.12 905.89 268.83 904.71 275.78 903.37 283.07 902.02 290.62 901.21 298.34 900.66 306.25 900.52 314.29 901.24 322.42 902.56 330.62 904.54 338.82 907.53 347.07 911.2 355.29 915.5 363.42 920.64 371.56 926.21 379.59 932.02 387.47 938.21 395.34 944.09 402.86 949.45 410.01 954.57 417.16 958.79 423.94 961.96 430.37 964.43 436.81 965.65 442.92 965.58 448.73 964.61 454.61 962.34 460.24 958.85 465.69 954.52 471.31 949.13 476.84 942.81 482.37 935.9 488.2 928.3 494.16 920.15 500.33 911.73 506.96 902.99 513.93 894.07 521.3 885.15 529.22 876.2 537.6 867.31 546.43 858.61 555.74 850.04 565.41 841.64 575.33 833.5 585.42 825.55 595.48 817.78 605.27 810.25 614.7 802.87 623.45 795.6 631.22 788.54 638.02 781.53 643.44 774.56 647.25 767.71 649.69 760.84 650.36 753.92 649.23 747.06 646.83 740.11 642.9 733.04 637.64 726.01 631.88 718.83 625.46 711.51 618.8 704.2 612.78 696.73 607.31 689.13 602.77 681.52 599.87 673.96 598.39 666.47 598.35 658.99 600.03 651.6 602.86 644.33 606.58 637.08 611.31 629.99 616.27 623.07 621.09 616.21 625.91 609.55 629.92 603.14 632.86 596.79 634.99 590.71 635.68 584.93 634.85 579.23 632.86 573.84 629.35 568.79 624.43 563.81 618.48 559.16 611.37 554.86 603.32 550.6 594.63 546.67 585.32 543.07 575.62 539.45 565.7 536.11 555.67 533.05 545.66 529.9 535.75 526.97 526.02 524.24 516.55 521.34 507.32 518.59 498.38 515.96 489.72 513.1 481.33 510.32 473.17 507.62 465.23 504.65 457.49 501.75 449.88 498.93 442.35 495.85 434.96 492.89 427.57 490.07 420.17 487.07 412.82 484.28 405.4 481.76 397.88 479.19 390.39 476.99 382.77 475.22 375.05 473.56 367.32 472.47 359.67 471.97 352.12 471.71 344.59 472.09 337.19 473.11 329.96 474.43 322.78 476.39 315.81 478.97 309.11 481.83 302.5 485.28 296.2 489.27 290.27 493.48 284.46 498.17 279.05 503.28 274.09 508.51 269.25 514.1 264.87 519.98 260.95 525.88 257.11 532.02 253.7 538.34 250.68 544.61 247.64 551.02 244.89 557.53 242.37 563.94 239.64 570.43 237 577 234.36 583.43 231.29 589.93 228.08 596.51 224.65 602.95 220.64 609.49 216.32 616.12 211.69 622.64 206.48 629.28 201.01 636.05 195.34 642.73 189.31 649.58 183.3 656.6 177.47 663.56 171.69 670.72 166.41 678.08 161.82 685.41 157.76 692.97 154.67 700.77 152.72 708.55 151.61 716.59 151.74 724.88 153.14" stroke-dasharray="4 5" transform="rotate(50.160000000000004, 711, 400)" opacity="0.47"></path><path d="M730.14 168.13C737.97 170.23 745.81 173.28 753.65 177.12 761.48 181.29 769.3 185.94 777.07 190.9 784.82 195.73 792.51 200.58 800.08 205.33 807.6 209.59 814.97 213.6 822.13 217.3 829.19 220.39 835.99 223.17 842.46 225.67 851.73 228.52 867.71 233.21 874.17 235.55 883.22 241.26 889.52 254.42 889.32 260.71 888.65 267.8 886.26 284.43 885.15 293.78 884.97 300.25 885.04 306.99 885.48 313.91 886.7 320.93 888.41 328.09 890.65 335.33 893.76 342.62 897.39 349.96 901.52 357.29 906.35 364.64 911.49 371.96 916.79 379.22 922.42 386.48 927.76 393.49 932.65 400.25 937.36 407.02 941.31 413.55 944.38 419.86 946.9 426.2 948.35 432.35 948.7 438.35 948.31 444.44 946.79 450.44 944.18 456.4 940.86 462.54 936.55 468.72 931.35 475.01 925.61 481.58 919.15 488.36 912.1 495.38 904.74 502.76 896.96 510.46 888.9 518.49 880.74 526.89 872.43 535.61 864.07 544.58 855.78 553.79 847.51 563.13 839.33 572.46 831.3 581.72 823.38 590.71 815.6 599.21 807.99 607.2 800.51 614.38 793.14 620.52 785.93 625.71 778.81 629.58 771.76 631.99 764.82 633.23 757.9 632.95 751.01 631.17 744.18 628.4 737.33 624.4 730.45 619.36 723.6 614 716.69 608.17 709.72 602.17 702.76 596.8 695.73 591.9 688.64 587.78 681.55 585.07 674.57 583.54 667.71 583.21 660.85 584.37 654.13 586.54 647.57 589.49 641.03 593.43 634.66 597.65 628.5 601.88 622.36 606.29 616.45 610.16 610.78 613.26 602.47 616.56 587.29 615.85 580.46 611.61 576.04 607.46 571.9 602.18 568.07 595.91 564.24 588.97 560.67 581.28 557.38 573.03 554.04 564.41 550.92 555.46 548.03 546.33 545.01 537.11 542.17 527.87 539.49 518.71 536.63 509.63 533.88 500.7 531.23 491.96 528.35 483.38 525.54 474.99 522.8 466.81 519.81 458.78 516.88 450.9 514.04 443.19 510.97 435.57 508.01 428.06 505.19 420.63 502.23 413.26 499.46 405.93 496.96 398.65 494.42 391.38 492.23 384.12 490.44 376.89 488.76 369.66 487.61 362.62 487.01 355.79 486.63 348.97 486.85 342.36 487.66 336.01 488.74 329.68 490.42 323.63 492.69 317.89 495.23 312.2 498.32 306.84 501.93 301.85 505.76 296.91 510.07 292.35 514.78 288.17 519.65 284.04 524.88 280.27 530.41 276.86 536.01 273.42 541.86 270.29 547.91 267.42 553.96 264.4 560.17 261.56 566.51 258.81 572.78 255.77 579.17 252.72 585.63 249.59 592.01 246.01 598.46 242.25 604.98 238.27 611.4 233.77 617.9 229.01 624.48 224.01 630.97 218.55 637.55 212.92 644.24 207.22 650.85 201.29 657.59 195.48 664.46 189.93 671.28 184.53 678.25 179.66 685.38 175.48 692.48 171.83 699.76 169.11 707.21 167.43 714.66 166.52 722.3 166.75 730.14 168.13" stroke-dasharray="0 1" transform="rotate(54.72, 711, 400)" opacity="0.51"></path><path d="M733.04 183.12C740.36 185.11 747.63 187.97 754.83 191.56 762.03 195.48 769.14 199.88 776.14 204.6 783.12 209.27 789.96 214.04 796.63 218.77 803.25 223.14 809.66 227.34 815.81 231.31 821.86 234.76 827.61 237.95 833.01 240.89 840.69 244.43 853.61 250.24 858.68 252.86 868.06 263.62 870.11 279.65 869.45 286.05 869.12 293.02 869.59 308.83 870.85 317.51 872.45 323.45 874.47 329.6 876.91 335.9 880.05 342.25 883.61 348.72 887.53 355.29 892.03 361.87 896.75 368.52 901.57 375.21 906.66 381.91 911.48 388.49 915.91 394.96 920.21 401.43 923.87 407.8 926.79 414.08 929.29 420.39 930.88 426.66 931.55 432.9 931.63 439.23 930.74 445.58 928.9 452 926.45 458.57 923.11 465.27 918.97 472.12 914.32 479.19 908.97 486.47 903.03 493.97 896.76 501.72 890.02 509.7 882.94 517.88 875.68 526.26 868.2 534.79 860.56 543.4 852.9 552.03 845.18 560.58 837.45 568.92 829.79 577.02 822.17 584.67 814.62 591.72 807.18 598.17 799.81 603.77 792.55 608.34 785.39 612.04 778.32 614.54 771.33 615.76 764.43 616.02 757.58 615.01 750.79 612.77 744.06 609.8 737.36 605.86 730.69 601.12 724.04 596.22 717.4 590.97 710.77 585.63 704.15 580.87 697.52 576.51 690.9 572.79 684.28 570.27 677.82 568.72 671.52 568.15 665.22 568.86 659.1 570.42 653.17 572.68 647.24 575.85 641.51 579.33 635.99 582.92 627.85 588.59 612.77 597.12 605.86 599.04 599.24 598.98 587.27 592.38 581.91 586.02 578.38 580.83 575.08 574.85 572 568.22 568.83 561.15 565.85 553.62 563.05 545.74 560.11 537.64 557.3 529.36 554.62 520.99 551.76 512.57 548.98 504.16 546.29 495.83 543.38 487.53 540.53 479.35 537.76 471.32 534.75 463.37 531.81 455.56 528.96 447.91 525.91 440.32 522.98 432.88 520.19 425.58 517.28 418.32 514.57 411.17 512.11 404.15 509.62 397.14 507.45 390.24 505.67 383.46 503.98 376.68 502.79 370.17 502.11 363.93 501.64 354.72 503.84 337.76 506.49 330.05 510.05 322.68 520 309.56 526.22 303.79 530.67 300.01 535.48 296.51 540.6 293.26 545.81 289.91 551.29 286.74 556.99 283.73 562.73 280.5 568.64 277.34 574.71 274.19 580.75 270.72 586.92 267.17 593.19 263.5 599.4 259.41 605.7 255.15 612.08 250.69 618.39 245.81 624.77 240.73 631.22 235.5 637.61 229.93 644.07 224.3 650.61 218.7 657.1 212.99 663.68 207.48 670.35 202.3 676.99 197.33 683.73 192.9 690.58 189.16 697.41 185.93 704.37 183.57 711.45 182.17 718.52 181.45 725.72 181.76 733.04 183.12" stroke-dasharray="5 1" transform="rotate(59.28, 711, 400)" opacity="0.54"></path><path d="M733.24 198.1C740 199.98 746.65 202.64 753.18 205.98 759.7 209.62 766.09 213.74 772.31 218.19 778.5 222.65 784.52 227.25 790.31 231.9 796.05 236.28 801.55 240.58 806.76 244.72 814.3 250.21 827.5 259.5 833.03 263.39 845.72 273.91 851.75 285.25 852 289.45 852.24 294.03 852.7 304.96 853.28 311.3 854.7 318.03 859.61 332.97 863.28 341.08 866.41 346.58 869.84 352.28 873.53 358.15 877.69 364.03 881.99 370.07 886.34 376.26 890.92 382.46 895.24 388.65 899.21 394.84 903.11 401.05 906.47 407.26 909.2 413.5 911.62 419.77 913.29 426.09 914.19 432.46 914.62 438.92 914.23 445.47 913.03 452.13 911.33 458.91 908.85 465.83 905.65 472.91 902 480.12 897.7 487.5 892.83 495.02 887.64 502.67 881.97 510.45 875.91 518.29 869.65 526.18 863.1 534.06 856.34 541.85 849.48 549.52 842.49 556.96 835.42 564.03 828.35 570.76 821.24 576.96 814.15 582.48 807.1 587.42 800.09 591.51 793.13 594.65 786.24 597.04 779.4 598.38 772.64 598.64 765.94 598.15 759.3 596.62 752.74 594.11 746.21 591.1 739.74 587.33 733.33 582.95 726.95 578.53 720.61 573.87 714.33 569.16 708.05 564.98 701.81 561.14 695.63 557.8 686.45 554.7 669.05 554 660.85 556.14 652.85 559.97 637.92 569.14 631.01 573.49 618.19 579 601.09 577.67 596.1 573.55 592.78 569.96 589.64 565.63 586.68 560.62 583.62 555.18 580.71 549.2 577.93 542.79 575.02 536.1 572.21 529.09 569.5 521.88 566.61 514.51 563.8 507.03 561.07 499.51 558.13 491.94 555.26 484.38 552.46 476.89 549.45 469.41 546.52 462.01 543.69 454.74 540.68 447.49 537.8 440.37 535.07 433.39 532.23 426.43 529.59 419.6 527.19 412.94 524.77 406.28 522.66 399.76 520.9 393.4 518.61 384.02 516.62 366.75 517 358.85 518.2 351.23 523.44 337.43 527.42 331.21 532.14 325.19 543.84 314.18 550.65 309.06 555.42 305.55 560.45 302.13 565.72 298.78 571.04 295.2 576.57 291.61 582.26 287.99 587.96 284.05 593.81 280.01 599.76 275.85 605.7 271.35 611.74 266.69 617.86 261.89 623.95 256.77 630.11 251.54 636.33 246.23 642.51 240.72 648.76 235.23 655.07 229.86 661.34 224.48 667.68 219.36 674.08 214.62 680.46 210.13 686.91 206.18 693.42 202.9 699.92 200.09 706.49 198.08 713.13 196.94 719.77 196.4 726.48 196.79 733.24 198.1" stroke-dasharray="0 1" transform="rotate(63.84, 711, 400)" opacity="0.58"></path><path d="M730.7 213.09C743.03 217.04 754.74 223.5 765.69 231.67 776.55 240.02 786.51 248.84 795.37 257.52 803.98 264.96 811.32 271.82 817.22 278.07 824.85 285.24 832.95 298.4 834.38 306 835.7 311.18 836.88 317.46 838.29 324.86 841.26 332.32 845.05 340.9 849.77 350.5 856.3 360.13 863.57 370.71 871.11 382.16 879.39 393.62 886.41 405.45 891.63 417.58 895.94 429.82 897.63 442.53 896.64 455.66 894.08 469.05 888.88 482.94 881.45 497.11 872.82 511.35 862.49 525.51 851 539 839.02 551.66 826.38 562.7 813.48 571.32 800.58 577.84 787.64 581.11 774.89 580.76 762.26 578.23 749.82 572.7 737.68 564.88 725.61 557.23 713.77 549.48 702.24 542.82 690.72 539.43 680 538.53 670.12 539.89 660.2 544.08 651.09 549.03 642.83 553.7 634.48 558.58 626.93 561.46 620.17 561.84 613.19 560.69 606.88 556.62 601.18 549.96 595.05 541.79 589.33 531.6 584.01 520.04 578.03 507.74 572.3 494.73 566.86 481.5 560.76 468.1 555.01 454.81 549.8 441.9 544.28 429.01 539.61 416.55 536.12 404.69 532.95 392.84 531.51 382.09 531.82 372.43 532.87 362.69 535.77 353.91 540.35 346.02 545.69 337.85 552.56 330.3 560.7 323.2 569.32 315.44 578.96 307.71 589.35 299.83 599.91 290.92 611.04 281.6 622.52 271.92 633.99 261.39 645.77 250.84 657.71 240.79 669.6 231.02 681.69 222.75 693.88 216.69 706.06 212.38 718.38 211.08 730.7 213.09" stroke-dasharray="3 2" transform="rotate(68.39999999999999, 711, 400)" opacity="0.62"></path><path d="M725.75 228.08C736.82 231.71 747.19 237.59 756.74 245.05 766.21 252.83 774.76 261.24 782.25 269.75 789.58 277.39 795.76 284.69 800.73 291.54 805.54 297.22 809.2 302.63 811.76 307.94 815.37 314.85 820.69 330.51 823.91 340.12 827.44 346.74 831.57 354.36 836.34 362.96 842.52 371.55 849.17 381.13 855.88 391.7 863.2 402.27 869.4 413.37 874.1 424.87 878.16 436.45 880.09 448.5 879.8 460.88 878.31 473.33 874.58 486.04 868.87 498.7 862.14 511.13 853.79 523.1 844.25 534.05 834.16 544.02 823.28 552.27 811.95 558.19 800.49 562.36 788.82 563.77 777.18 562.25 765.59 559.24 754.08 553.94 742.82 546.94 731.61 540.32 720.6 533.66 709.93 527.83 699.26 524.66 689.36 523.4 680.26 523.91 671.11 526.85 662.7 530.52 655.04 534.2 647.27 538.44 640.16 541.35 633.72 542.47 627.04 542.68 620.88 540.59 615.23 536.3 609.15 530.84 603.42 523.46 598.02 514.6 592.07 505.01 586.35 494.43 580.94 483.31 575 471.93 569.43 460.34 564.41 448.83 559.16 437.3 554.71 425.97 551.35 415.02 548.26 404.08 546.73 394.01 546.75 384.78 547.39 375.46 549.68 366.84 553.48 358.83 557.95 350.53 563.82 342.58 570.87 334.85 578.41 326.52 586.94 318.12 596.22 309.56 605.74 300.22 615.85 290.62 626.35 280.9 636.92 270.72 647.8 260.8 658.83 251.6 669.87 242.89 681.06 235.69 692.25 230.57 703.45 227.01 714.67 226.11 725.75 228.08" stroke-dasharray="1 5" transform="rotate(72.96000000000001, 711, 400)" opacity="0.66"></path><path d="M718.98 243.07C728.79 246.37 737.88 251.64 746.17 258.36 754.39 265.48 761.76 273.32 768.17 281.44 774.5 289.02 779.87 296.49 784.25 303.68 788.6 309.98 792.07 316.06 794.73 321.98 797.62 327.18 799.98 332.51 801.98 338.12 804.63 343.32 807.29 349.07 810.12 355.48 814.01 361.72 818.31 368.77 822.99 376.66 828.75 384.5 834.74 393.26 840.66 402.93 847.05 412.6 852.46 422.78 856.62 433.31 860.36 443.87 862.36 454.77 862.57 465.82 861.91 476.8 859.37 487.76 855.14 498.38 850.08 508.61 843.56 518.11 835.87 526.43 827.68 533.82 818.61 539.53 808.98 543.16 799.15 545.47 788.97 545.52 778.67 543.29 768.34 540.11 757.99 535.24 747.78 529.13 737.59 523.53 727.54 517.89 717.75 512.84 707.97 509.92 698.86 508.4 690.46 508.22 682 510.04 674.18 512.53 667 515.16 659.69 518.53 652.93 521.08 646.71 522.41 640.25 523.34 634.21 522.54 628.58 519.99 622.58 516.65 616.87 511.62 611.46 505.17 605.6 498.12 599.98 489.96 594.67 481.04 588.97 471.83 583.65 462.14 578.88 452.24 573.95 442.28 569.77 432.24 566.58 422.28 563.62 412.33 562.03 402.92 561.8 394.06 562.09 385.11 563.81 376.58 566.87 368.41 570.48 359.98 575.36 351.69 581.32 343.49 587.72 334.83 595.06 326.07 603.13 317.2 611.47 307.85 620.41 298.4 629.74 289.07 639.21 279.58 648.99 270.56 658.91 262.41 668.9 254.85 678.99 248.76 689.05 244.56 699.13 241.71 709.16 241.15 718.98 243.07" stroke-dasharray="4 2" transform="rotate(77.52000000000001, 711, 400)" opacity="0.70"></path><path d="M711.23 258.05C719.8 261.01 727.7 265.66 734.87 271.61 742.01 277.98 748.4 285.11 754 292.65 759.58 299.91 764.38 307.25 768.43 314.49 772.53 321.11 775.99 327.6 778.87 333.97 782.03 339.75 784.83 345.57 787.38 351.51 790.51 357.08 793.65 362.98 796.89 369.3 800.94 375.45 805.22 382.17 809.7 389.52 814.96 396.81 820.29 404.82 825.43 413.56 830.94 422.29 835.6 431.37 839.2 440.63 842.56 449.89 844.52 459.27 845.04 468.58 844.96 477.75 843.36 486.66 840.34 495.01 836.7 502.95 831.78 510.02 825.78 515.89 819.35 520.99 812.06 524.59 804.14 526.45 796 527.39 787.41 526.56 778.58 524.02 769.69 520.97 760.64 516.67 751.61 511.5 742.58 506.85 733.58 502.16 724.74 497.85 715.9 495.19 707.6 493.51 699.87 492.79 692.09 493.68 684.81 495.09 678.05 496.7 671.18 499.1 664.73 501.02 658.71 502.15 652.49 503.24 646.59 503.1 641.03 501.65 635.17 499.76 629.56 496.49 624.23 491.96 618.56 487.02 613.14 480.98 608.04 474.08 602.67 466.94 597.68 459.14 593.22 450.87 588.67 442.55 584.8 433.87 581.81 424.99 579.01 416.11 577.41 407.44 576.99 399.02 576.96 390.55 578.18 382.23 580.54 374.06 583.36 365.71 587.28 357.37 592.16 349.04 597.43 340.43 603.56 331.73 610.37 323.04 617.44 314.11 625.09 305.25 633.15 296.68 641.35 288.2 649.87 280.3 658.56 273.33 667.32 266.98 676.18 261.99 685.01 258.67 693.88 256.48 702.66 256.23 711.23 258.05" stroke-dasharray="1 4" transform="rotate(82.08, 711, 400)" opacity="0.73"></path><path d="M703.45 273.04C710.81 275.64 717.61 279.67 723.82 284.82 730.01 290.37 735.61 296.68 740.59 303.46 745.58 310.16 750 317.08 753.86 324.03 757.82 330.63 761.33 337.2 764.44 343.7 767.81 349.8 770.94 355.91 773.9 362.05 777.32 367.9 780.73 373.93 784.16 380.2 788.18 386.3 792.3 392.76 796.45 399.62 801.16 406.42 805.81 413.69 810.21 421.42 814.88 429.16 818.81 436.99 821.87 444.81 824.79 452.59 826.61 460.29 827.3 467.7 827.59 474.96 826.67 481.78 824.61 487.93 820.31 496.18 806.3 506.72 797.17 508.35 790.67 508.41 783.68 507.14 776.34 504.63 768.94 501.9 761.28 498.29 753.51 494.04 745.73 490.3 737.87 486.48 730.04 482.87 722.21 480.49 714.76 478.74 707.73 477.64 700.66 477.76 693.96 478.27 687.64 478.95 681.23 480.37 675.14 481.52 669.38 482.18 660.63 483.02 644.11 479.94 636.3 475.7 630.94 472.29 625.83 467.91 621.05 462.69 616.09 457.3 611.51 451.17 607.42 444.44 603.3 437.65 599.78 430.34 597.03 422.59 594.44 414.85 592.87 407.05 592.3 399.27 592.03 391.46 592.8 383.62 594.55 375.78 596.64 367.85 599.67 359.86 603.54 351.86 607.71 343.74 612.65 335.59 618.2 327.54 623.99 319.46 630.32 311.57 637.03 304.09 643.9 296.83 651.08 290.2 658.43 284.48 665.87 279.36 673.43 275.42 680.98 272.93 688.56 271.33 696.1 271.33 703.45 273.04" stroke-dasharray="2 4" transform="rotate(86.64, 711, 400)" opacity="0.77"></path><path d="M696.6 288.03C702.8 290.27 708.59 293.67 713.94 298.01 719.28 302.7 724.2 308.1 728.67 313.98 733.17 319.9 737.27 326.12 740.99 332.49 744.81 338.69 748.33 344.96 751.58 351.23 755.05 357.26 758.35 363.32 761.51 369.38 765 375.25 768.46 381.2 771.87 387.24 775.69 393.16 779.5 399.26 783.23 405.54 787.34 411.78 791.3 418.24 794.98 424.9 798.86 431.56 802.1 438.1 804.62 444.43 807.89 453.73 809.68 470.27 808.09 477 805.19 482.6 794.96 488.87 787.99 489.24 783 488.85 777.5 487.51 771.62 485.27 765.67 483.02 759.4 480.14 752.92 476.79 746.43 473.87 739.76 470.85 733.01 467.88 726.25 465.8 719.71 464.08 713.45 462.74 704.14 462.19 686.67 462.69 678.47 462.94 670.34 463.18 654.91 460.64 647.64 457.5 642.73 455.06 638.06 451.83 633.71 447.85 629.25 443.79 625.15 439.02 621.5 433.62 617.85 428.18 614.72 422.15 612.26 415.58 609.92 409.01 608.42 402.22 607.76 395.32 607.31 388.41 607.72 381.36 608.92 374.25 610.38 367.12 612.61 359.9 615.55 352.71 618.71 345.5 622.53 338.34 626.89 331.36 631.43 324.45 636.46 317.82 641.85 311.65 647.37 305.74 653.19 300.46 659.21 296 665.3 292.05 671.53 289.1 677.81 287.34 684.1 286.26 690.4 286.46 696.6 288.03" stroke-dasharray="2 4" transform="rotate(91.2, 711, 400)" opacity="0.81"></path><path d="M691.52 303.02C701.72 307.2 710.88 314.72 718.81 324.32 726.89 334.31 734.07 345.45 740.35 356.84 747.28 367.83 753.86 379.06 759.97 390.17 767.12 401.06 773.95 412.22 779.76 423.3 786.08 434.37 790.06 444.28 791.48 452.44 791.43 463.04 777.08 470.13 764.33 466.12 755.08 462.85 744.53 458.18 733.26 452.89 721.99 450.02 711.08 447.71 700.88 445.87 690.55 445.88 680.7 445.13 671.65 443.02 662.28 441.31 653.57 437.39 646.01 431.16 638.26 424.83 631.83 416.17 627.49 405.38 623.49 394.59 622.31 382.8 623.69 370.73 625.72 358.74 630.22 346.59 636.64 335.2 643.55 324.33 652.06 314.87 661.48 307.99 671.09 302.66 681.31 300.75 691.52 303.02" stroke-dasharray="2 5" transform="rotate(95.75999999999999, 711, 400)" opacity="0.85"></path><path d="M688.83 318C696.93 321.3 704.52 327.12 711.38 334.61 718.35 342.54 724.83 351.58 730.69 361.02 736.97 370.39 742.94 380.04 748.37 389.48 754.41 398.85 759.97 408.15 764.53 416.93 772.4 437.75 764.03 450.28 754.68 447.32 747.84 445.14 739.75 441.87 730.79 437.9 721.82 435.45 712.86 433 704.28 430.63 695.65 429.5 687.28 427.8 679.54 425.24 671.66 423.13 664.33 419.59 658 414.47 651.62 409.39 646.33 402.57 642.71 394.08 639.33 385.6 638.12 376.31 638.86 366.88 639.99 357.56 643.03 348.3 647.59 339.85 652.45 331.88 658.64 325.18 665.7 320.55 672.86 316.99 680.72 315.97 688.83 318" stroke-dasharray="1 4" transform="rotate(100.32000000000001, 711, 400)" opacity="0.89"></path><path d="M688.86 332.99C694.94 335.42 700.86 339.59 706.43 344.98 712.07 350.72 717.47 357.38 722.46 364.45 727.66 371.59 732.6 379.01 737.02 386.26 741.73 393.52 745.95 400.61 749.3 407.1 752.3 426.36 735.44 426.74 725.88 422.92 719.23 420.97 712.4 418.7 705.75 416.26 699.07 414.52 692.53 412.31 686.44 409.56 680.31 407.14 674.62 403.85 669.71 399.64 664.81 395.49 660.76 390.26 657.94 383.99 655.26 377.73 654.15 371.05 654.45 364.41 654.94 357.88 656.81 351.57 659.81 345.98 665.06 338.63 679.94 331.48 688.86 332.99" stroke-dasharray="2 4" transform="rotate(104.88000000000001, 711, 400)" opacity="0.92"></path><path d="M691.61 347.98C699.77 351.44 708.16 358.94 715.41 367.89 722.99 377.18 729.81 387.31 734.08 395.82 739.02 406.91 730.95 412.28 719.15 407.93 710.41 405.58 700.9 401.49 692.56 396.4 684.24 391.98 677.1 385.44 673.17 377.17 669.67 364.71 680.21 347.17 691.61 347.98" stroke-dasharray="2 0" transform="rotate(109.44, 711, 400)" opacity="0.96"></path></g></svg>