<svg xmlns="http://www.w3.org/2000/svg" version="1.1" xmlns:xlink="http://www.w3.org/1999/xlink" xmlns:svgjs="http://svgjs.dev/svgjs" viewBox="0 0 1422 800" opacity="0.38"><defs><linearGradient x1="50%" y1="0%" x2="50%" y2="100%" id="ccchaos-grad"><stop stop-color="hsl(206, 75%, 49%)" stop-opacity="1" offset="0%"></stop><stop stop-color="hsl(331, 90%, 56%)" stop-opacity="1" offset="100%"></stop></linearGradient></defs><g stroke-width="2" stroke="url(#ccchaos-grad)" fill="none" stroke-linecap="round"><path d="M689.54 78.22C700.42 76.14 711.07 73.97 721.47 71.94 731.86 69.67 741.99 68.03 751.87 67.23 761.77 66.91 771.44 67.79 780.89 69.95 790.41 72.94 799.77 77.25 809 82.78 818.37 89.02 827.68 96.23 836.99 104.23 846.54 112.49 856.17 121.19 865.92 130.14 876 138.89 886.29 147.64 896.8 156.29 907.69 164.43 918.82 172.4 930.17 180.17 941.86 187.4 953.69 194.5 965.57 201.54 977.59 208.16 989.47 214.85 1001.05 221.69 1012.41 228.28 1023.18 235.16 1033.13 242.36 1042.43 249.48 1050.59 257.02 1057.4 264.98 1063.16 272.95 1067.32 281.37 1069.75 290.25 1070.97 299.15 1070.42 308.5 1068.11 318.25 1064.79 328.01 1059.96 338.17 1053.8 348.68 1047.22 359.19 1039.8 370.04 1031.83 381.21 1024.27 392.39 1016.9 403.63 1009.99 414.92 1004.16 426.25 999.08 437.67 994.85 449.19 991.93 460.79 989.84 472.55 988.49 484.48 988.28 496.54 988.55 508.83 989.13 521.33 990.39 533.99 991.58 546.85 992.5 559.84 993.6 572.9 994.1 585.97 993.85 598.92 993.35 611.64 991.9 623.98 989.44 635.68 986.5 646.74 982.48 656.81 977.41 665.62 971.81 673.37 965.2 679.57 957.69 684.08 949.71 687.38 940.93 689.02 931.47 689.07 921.68 688.39 911.33 686.65 900.53 684.2 889.55 682.12 878.22 680.22 866.64 678.98 854.99 679.39 843.16 681.22 831.23 684.73 819.29 690.45 807.28 697.88 795.28 706.76 783.28 717.04 771.29 727.8 759.35 738.3 747.42 748.23 735.53 756.45 723.71 762.22 711.88 765.56 700.38 765.61 689.2 762.44 677.99 756.82 667.09 748.65 656.48 738.56 645.82 727.58 635.42 715.97 625.3 704.42 615.09 693.81 605.12 684.24 595.38 676.04 585.53 669.72 575.89 664.94 566.46 661.56 556.9 659.85 547.53 659.02 538.35 658.7 529.04 659.14 519.92 659.37 511.01 659.04 501.98 658.52 493.18 656.92 484.62 654.12 476 650.57 467.65 645.64 459.64 639.4 451.62 632.33 443.97 624.05 436.74 614.75 429.58 604.82 422.89 594.09 416.71 582.77 410.67 571.09 405.18 559.04 400.29 546.75 395.57 534.33 391.47 521.83 388 509.35 384.72 496.85 382.07 484.44 380.08 472.17 378.25 459.92 377.06 447.83 376.53 435.93 376.11 424.05 376.32 412.35 377.17 400.86 378.08 389.37 379.57 378.34 381.6 367.76 383.62 357.16 386.13 347 389.12 337.25 392.01 327.46 395.33 318.06 399.04 309.03 402.6 299.9 406.52 291.08 410.76 282.55 414.82 273.82 419.2 265.29 423.87 256.91 428.35 248.23 433.13 239.59 438.21 230.94 443.13 221.9 448.38 212.78 453.94 203.56 459.41 193.93 465.24 184.2 471.43 174.41 477.59 164.35 484.14 154.37 491.08 144.58 498.05 134.83 505.43 125.51 513.2 116.81 521.04 108.55 529.28 101.17 537.89 94.83 546.59 89.23 555.64 84.81 565.02 81.62 574.47 79.15 584.23 77.79 594.24 77.45 604.31 77.39 614.6 77.97 625.08 78.99 635.59 79.62 646.25 80.25 657.01 80.7 667.78 80.26 678.64 79.42 689.53 78.22" stroke-dasharray="3 4" transform="rotate(0, 711, 400)" opacity="0.05"></path><path d="M687.37 96.22C697.63 94.17 707.73 92.05 717.64 90.03 727.56 87.75 737.32 86.03 746.9 85.03 756.51 84.42 765.98 84.9 775.32 86.54 784.74 88.92 794.08 92.55 803.36 97.36 812.79 102.87 822.22 109.4 831.69 116.76 841.39 124.5 851.19 132.8 861.11 141.48 871.31 150.12 881.68 158.89 892.22 167.68 903.05 176.12 914.04 184.45 925.13 192.64 936.44 200.36 947.77 207.94 959.02 215.42 970.28 222.47 981.29 229.51 991.87 236.59 1002.16 243.37 1011.78 250.3 1020.55 257.45 1028.67 264.42 1035.67 271.7 1041.37 279.31 1046.14 286.84 1049.44 294.76 1051.17 303.08 1051.86 311.36 1050.98 320.07 1048.55 329.18 1045.28 338.28 1040.69 347.8 1034.92 357.71 1028.82 367.61 1021.97 377.91 1014.6 388.61 1007.59 399.31 1000.71 410.17 994.17 421.16 988.55 432.18 983.54 443.37 979.21 454.7 976.03 466.1 973.55 477.68 971.71 489.43 970.9 501.24 970.53 513.23 970.47 525.34 971.1 537.48 971.73 549.68 972.2 561.84 972.94 573.89 973.24 585.76 972.96 597.26 972.59 608.39 971.44 618.92 969.45 628.64 967.13 637.65 963.88 645.59 959.72 652.25 955.13 657.96 949.64 662.26 943.29 665.07 936.55 667.01 929.03 667.62 920.82 667.04 912.31 666.14 903.2 664.57 893.6 662.69 883.8 661.46 873.6 660.64 863.08 660.62 852.45 662.21 841.58 665.14 830.54 669.55 819.46 675.88 808.25 683.58 796.97 692.4 785.68 702.31 774.34 712.45 762.99 722.2 751.64 731.36 740.29 738.9 728.95 744.22 717.61 747.4 706.54 747.63 695.74 744.98 684.93 740.14 674.37 732.92 664.06 723.85 653.72 713.81 643.6 702.97 633.72 691.94 623.76 681.49 614.01 671.73 604.47 662.98 594.84 655.77 585.39 649.85 576.13 645.19 566.77 642.09 557.58 639.95 548.58 638.48 539.47 637.96 530.55 637.54 521.84 636.94 513.05 636.49 504.48 635.36 496.16 633.38 487.8 630.98 479.73 627.49 471.99 622.88 464.26 617.64 456.91 611.3 449.97 603.95 443.12 596.02 436.72 587.23 430.82 577.73 425.07 567.83 419.86 557.4 415.22 546.58 410.76 535.55 406.89 524.28 403.65 512.87 400.58 501.38 398.14 489.85 396.34 478.35 394.71 466.83 393.69 455.39 393.32 444.06 393.07 432.75 393.42 421.55 394.4 410.52 395.43 399.48 397.02 388.85 399.12 378.62 401.2 368.36 403.75 358.47 406.73 348.93 409.62 339.34 412.9 330.05 416.54 321.04 420.03 311.91 423.85 303 427.96 294.28 431.89 285.36 436.11 276.53 440.6 267.78 444.9 258.75 449.48 249.7 454.32 240.62 459 231.22 463.97 221.74 469.23 212.21 474.38 202.4 479.85 192.58 485.64 182.81 491.37 172.94 497.46 163.27 503.9 153.94 510.33 144.79 517.14 136.2 524.3 128.33 531.5 120.96 539.07 114.51 546.98 109.11 554.94 104.4 563.25 100.81 571.87 98.34 580.54 96.48 589.51 95.59 598.73 95.57 608 95.72 617.51 96.38 627.21 97.38 636.94 97.96 646.84 98.49 656.88 98.83 666.93 98.31 677.1 97.44 687.36 96.22" stroke-dasharray="3 3" transform="rotate(4, 711, 400)" opacity="0.10"></path><path d="M687.14 114.22C696.82 112.22 706.41 110.15 715.9 108.16 725.39 105.9 734.79 104.11 744.1 102.97 753.44 102.12 762.72 102.22 771.93 103.37 781.23 105.18 790.51 108.14 799.78 112.21 809.19 116.97 818.65 122.74 828.17 129.38 837.87 136.47 847.68 144.21 857.6 152.43 867.73 160.76 877.99 169.35 888.35 178.07 898.9 186.6 909.53 195.13 920.17 203.59 930.91 211.69 941.56 219.69 952.03 227.58 962.41 235.09 972.43 242.55 981.96 249.99 991.14 257.11 999.61 264.3 1007.22 271.6 1014.2 278.69 1020.11 285.97 1024.82 293.49 1028.69 300.88 1031.22 308.57 1032.36 316.59 1032.61 324.54 1031.47 332.85 1028.98 341.53 1025.8 350.18 1021.46 359.22 1016.09 368.66 1010.46 378.08 1004.16 387.91 997.37 398.15 990.9 408.4 984.49 418.82 978.33 429.41 972.95 440.02 968.04 450.8 963.68 461.72 960.31 472.67 957.51 483.77 955.26 494.97 953.92 506.18 952.98 517.46 952.34 528.73 952.35 539.94 952.42 551.05 952.42 561.94 952.74 572.62 952.75 582.92 952.33 592.7 951.92 602.03 950.91 610.64 949.21 618.35 945.97 628.37 935.11 641.55 927.47 644.55 921.79 645.59 915.39 645.64 908.32 644.89 900.98 644.14 893.05 643.08 884.59 642 875.95 641.74 866.86 642.04 857.4 643.2 847.84 645.86 837.96 649.73 827.85 654.87 817.68 661.61 807.33 669.44 796.83 678.08 786.32 687.54 775.69 697.03 764.99 706.04 754.29 714.43 743.52 721.33 732.72 726.22 721.92 729.23 711.32 729.62 700.95 727.45 690.56 723.31 680.38 717 670.41 708.92 660.41 699.85 650.6 689.86 640.98 679.47 631.32 669.37 621.82 659.65 612.51 650.61 603.12 642.77 593.9 635.96 584.86 630.22 575.73 625.87 566.77 622.45 557.99 619.78 549.13 618.12 540.46 616.79 532 615.56 523.49 614.73 515.2 613.56 507.16 611.86 499.12 610.06 491.37 607.45 483.94 603.98 476.56 600.11 469.54 595.3 462.93 589.58 456.42 583.4 450.35 576.38 444.77 568.62 439.35 560.49 434.44 551.74 430.08 542.48 425.91 533 422.3 523.13 419.3 512.99 416.48 502.74 414.25 492.3 412.65 481.76 411.21 471.18 410.37 460.56 410.16 449.94 410.06 439.32 410.54 428.72 411.63 418.19 412.77 407.66 414.43 397.43 416.59 387.5 418.71 377.54 421.28 367.86 424.25 358.44 427.13 348.96 430.37 339.69 433.94 330.61 437.37 321.41 441.1 312.34 445.1 303.38 448.92 294.24 453.01 285.14 457.35 276.05 461.5 266.75 465.9 257.42 470.54 248.06 475.02 238.48 479.76 228.87 484.76 219.28 489.63 209.55 494.79 199.91 500.24 190.45 505.6 181.03 511.29 171.93 517.29 163.28 523.25 154.94 529.55 147.24 536.17 140.3 542.8 133.91 549.76 128.44 557.05 123.96 564.36 120.13 571.99 117.3 579.91 115.49 587.87 114.16 596.12 113.66 604.63 113.88 613.16 114.18 621.94 114.87 630.93 115.82 639.94 116.31 649.15 116.73 658.53 116.95 667.91 116.36 677.46 115.45 687.14 114.22" stroke-dasharray="7 6" transform="rotate(8, 711, 400)" opacity="0.16"></path><path d="M688.86 132.22C698.01 130.28 707.13 128.27 716.21 126.34 725.29 124.12 734.35 122.3 743.38 121.04 752.44 119.98 761.49 119.77 770.54 120.49 779.66 121.76 788.8 124.08 797.98 127.43 807.27 131.42 816.62 136.38 826.04 142.23 835.6 148.56 845.25 155.6 854.98 163.21 864.85 171.03 874.8 179.22 884.78 187.67 894.88 196.07 904.96 204.57 914.97 213.09 924.98 221.39 934.82 229.64 944.39 237.83 953.79 245.72 962.78 253.56 971.22 261.35 979.28 268.86 986.63 276.37 993.13 283.94 999.05 291.28 1003.96 298.73 1007.76 306.34 1010.83 313.79 1012.7 321.46 1013.33 329.37 1013.22 337.18 1011.91 345.29 1009.41 353.7 1006.35 362.07 1002.28 370.78 997.31 379.83 992.15 388.86 986.37 398.26 980.14 408.04 974.19 417.81 968.24 427.74 962.47 437.8 957.35 447.86 952.58 458.05 948.25 468.32 944.75 478.59 941.71 488.93 939.12 499.26 937.34 509.55 935.9 519.79 934.72 529.9 934.17 539.86 933.7 549.59 933.22 558.96 933.09 568.05 932.75 576.65 932.1 584.62 931.03 595.53 926.15 612.23 922.05 617.69 916.95 621.33 902.97 623.65 894.17 623.07 887.87 622.79 881 622.45 873.6 622.31 866.04 623.07 858.01 624.47 849.59 626.7 841.05 630.3 832.17 634.94 823 640.62 813.77 647.61 804.29 655.41 794.62 663.78 784.92 672.72 775.06 681.54 765.06 689.81 755.05 697.47 744.93 703.75 734.72 708.22 724.5 711.06 714.44 711.59 704.54 709.83 694.63 706.36 684.87 700.9 675.28 693.78 665.67 685.68 656.21 676.59 646.92 666.94 637.58 657.36 628.39 647.88 619.35 638.8 610.27 630.61 601.33 623.17 592.55 616.59 583.72 611.19 575.05 606.62 566.55 602.78 558 599.95 549.64 597.57 541.48 595.46 533.31 593.92 525.36 592.3 517.66 590.45 509.99 588.71 502.6 586.47 495.54 583.62 488.54 580.59 481.9 576.82 475.66 572.31 469.53 567.49 463.83 561.92 458.6 555.64 453.53 549.07 448.96 541.86 444.91 534.09 441.05 526.12 437.73 517.67 434.98 508.85 432.41 499.9 430.42 490.65 429.02 481.18 427.78 471.65 427.11 461.96 427.04 452.15 427.08 442.32 427.68 432.41 428.86 422.44 430.08 412.47 431.81 402.67 433.99 393.06 436.15 383.44 438.72 373.97 441.67 364.67 444.53 355.31 447.73 346.07 451.23 336.94 454.6 327.71 458.25 318.54 462.15 309.42 465.88 300.16 469.86 290.92 474.06 281.67 478.08 272.28 482.34 262.89 486.81 253.5 491.12 244 495.66 234.55 500.44 225.19 505.08 215.83 509.98 206.66 515.14 197.76 520.2 189.04 525.54 180.74 531.16 172.97 536.72 165.58 542.58 158.87 548.74 152.95 554.87 147.55 561.3 143.04 568.04 139.47 574.77 136.44 581.8 134.31 589.12 133.06 596.44 132.17 604.04 131.98 611.91 132.38 619.77 132.75 627.9 133.43 636.25 134.28 644.6 134.66 653.18 134.95 661.96 135.05 670.73 134.4 679.7 133.45 688.86 132.22" stroke-dasharray="1 7" transform="rotate(12, 711, 400)" opacity="0.21"></path><path d="M692.38 150.22C701.04 148.35 709.71 146.42 718.39 144.55 727.08 142.39 735.78 140.58 744.5 139.23 753.24 138.03 762.03 137.55 770.83 137.87 779.7 138.66 788.61 140.38 797.57 143.04 806.62 146.28 815.73 150.44 824.89 155.44 834.15 160.95 843.47 167.18 852.83 174.04 862.27 181.19 871.73 188.79 881.16 196.74 890.62 204.77 900.01 213 909.24 221.36 918.41 229.61 927.33 237.9 935.92 246.19 944.31 254.28 952.23 262.34 959.58 270.38 966.56 278.19 972.83 285.99 978.29 293.79 983.22 301.41 987.23 309.08 990.23 316.83 992.6 324.44 993.91 332.18 994.13 340.07 993.75 347.88 992.31 355.89 989.84 364.12 986.94 372.31 983.15 380.75 978.58 389.46 973.87 398.15 968.6 407.14 962.92 416.41 957.46 425.68 951.97 435.03 946.59 444.43 941.75 453.82 937.16 463.26 932.9 472.68 929.34 482.09 926.13 491.44 923.28 500.69 921.13 509.86 919.27 518.86 917.64 527.6 916.57 536.18 915.6 544.4 914.65 552.18 914.07 559.67 913.35 566.61 912.4 572.89 908.68 587.56 898.26 600.12 892.68 601.31 886.26 601.97 870.29 602.68 860.87 603.79 854.28 605.56 847.22 607.96 839.76 611.13 832.2 615.49 824.27 620.7 816.02 626.75 807.71 633.82 799.11 641.47 790.27 649.46 781.41 657.83 772.32 665.97 763.06 673.51 753.79 680.46 744.35 686.14 734.78 690.22 725.2 692.89 715.71 693.52 706.34 692.15 696.96 689.27 687.68 684.61 678.53 678.41 669.37 671.26 660.32 663.1 651.4 654.28 642.46 645.34 633.64 636.3 624.95 627.41 616.24 619.12 607.65 611.34 599.2 604.19 590.74 597.98 582.42 592.46 574.26 587.6 566.1 583.66 558.11 580.21 550.32 577.13 542.55 574.68 535 572.35 527.7 569.99 520.45 567.92 513.48 565.58 506.83 562.87 500.26 560.18 494.04 556.96 488.21 553.17 482.5 549.25 477.2 544.7 472.36 539.54 467.67 534.18 463.45 528.24 459.74 521.74 456.21 515.08 453.19 507.91 450.71 500.32 448.41 492.61 446.65 484.52 445.45 476.12 444.41 467.65 443.91 458.92 443.97 449.96 444.14 440.98 444.84 431.8 446.08 422.46 447.38 413.11 449.14 403.81 451.33 394.59 453.51 385.36 456.07 376.19 458.98 367.08 461.81 357.94 464.96 348.84 468.39 339.77 471.7 330.65 475.27 321.54 479.07 312.45 482.72 303.28 486.59 294.11 490.68 284.96 494.59 275.74 498.72 266.56 503.05 257.44 507.22 248.31 511.6 239.31 516.19 230.49 520.64 221.77 525.32 213.32 530.23 205.25 535.03 197.42 540.09 190.08 545.39 183.33 550.61 176.97 556.1 171.3 561.86 166.41 567.57 162 573.56 158.4 579.82 155.65 586.06 153.34 592.57 151.81 599.35 151.03 606.12 150.49 613.16 150.51 620.45 151.01 627.74 151.4 635.28 152.02 643.06 152.75 650.83 153.01 658.83 153.17 667.06 153.14 675.28 152.42 683.73 151.44 692.38 150.22" stroke-dasharray="5 5" transform="rotate(16, 711, 400)" opacity="0.26"></path><path d="M697.43 168.22C705.61 166.42 713.84 164.58 722.1 162.79 730.38 160.72 738.7 158.94 747.05 157.55 755.44 156.24 763.88 155.55 772.35 155.55 780.87 155.91 789.45 157.09 798.06 159.11 806.74 161.63 815.47 164.99 824.22 169.16 833.03 173.8 841.87 179.16 850.69 185.16 859.55 191.51 868.36 198.36 877.09 205.63 885.8 213.07 894.37 220.8 902.72 228.74 910.97 236.69 918.92 244.76 926.49 252.9 933.84 260.95 940.71 269.03 947.01 277.1 952.95 285.03 958.21 292.96 962.72 300.89 966.76 308.67 969.96 316.48 972.26 324.32 974.04 332.05 974.89 339.84 974.78 347.72 974.19 355.53 972.69 363.46 970.3 371.52 967.57 379.54 964.08 387.73 959.91 396.09 955.63 404.43 950.85 412.97 945.69 421.68 940.72 430.4 935.68 439.09 930.69 447.74 926.14 456.38 921.76 464.95 917.62 473.41 914.05 481.83 910.75 490.1 907.72 498.16 905.29 506.13 903.08 513.83 901.07 521.18 899.56 528.38 898.14 535.15 896.76 541.44 895.18 550.22 891.63 564.35 889.32 569.54 883.03 576.15 868.81 581.07 862.21 582.09 857.52 583.28 852.34 584.72 846.71 586.54 840.96 589.22 834.77 592.5 828.18 596.43 821.5 601.36 814.46 606.97 807.07 613.19 799.64 620.2 791.89 627.58 783.88 635.12 775.83 642.87 767.54 650.31 759.03 657.13 750.51 663.4 741.79 668.52 732.89 672.22 723.99 674.71 715.13 675.43 706.33 674.39 697.54 672.06 688.8 668.13 680.15 662.8 671.5 656.58 662.93 649.36 654.46 641.42 645.99 633.24 637.6 624.78 629.34 616.28 621.06 608.14 612.9 600.28 604.87 592.83 596.84 586.1 588.94 579.89 581.21 574.22 573.5 569.33 565.95 564.9 558.61 560.87 551.3 557.47 544.21 554.28 537.37 551.21 530.59 548.53 524.09 545.76 517.9 542.82 511.81 540.03 506.05 536.92 500.66 533.42 495.4 529.92 490.53 525.95 486.1 521.49 481.81 516.95 477.98 511.9 474.62 506.36 471.42 500.71 468.72 494.59 466.52 488.02 464.48 481.37 462.96 474.31 461.96 466.88 461.1 459.4 460.76 451.59 460.94 443.47 461.23 435.33 462.02 426.92 463.31 418.24 464.66 409.57 466.44 400.85 468.62 392.11 470.79 383.37 473.32 374.61 476.17 365.85 478.96 357.07 482.05 348.27 485.4 339.48 488.64 330.66 492.13 321.83 495.83 313.02 499.4 304.18 503.18 295.37 507.15 286.6 510.97 277.84 514.98 269.16 519.18 260.61 523.23 252.14 527.47 243.86 531.9 235.83 536.19 227.98 540.7 220.47 545.4 213.39 549.99 206.6 554.8 200.32 559.83 194.64 564.78 189.35 569.97 184.72 575.39 180.81 580.75 177.32 586.36 174.55 592.22 172.52 598.03 170.82 604.1 169.79 610.42 169.36 616.72 169.07 623.27 169.23 630.06 169.75 636.84 170.11 643.86 170.63 651.12 171.22 658.37 171.34 665.86 171.36 673.58 171.21 681.3 170.43 689.25 169.43 697.43 168.22" stroke-dasharray="0 6" transform="rotate(20, 711, 400)" opacity="0.31"></path><path d="M703.59 186.22C711.3 184.51 719.08 182.76 726.9 181.07 734.73 179.1 742.63 177.38 750.56 175.99 758.52 174.61 766.54 173.77 774.58 173.5 782.67 173.51 790.79 174.22 798.94 175.67 807.13 177.52 815.34 180.14 823.54 183.48 831.77 187.26 839.98 191.73 848.13 196.83 856.28 202.27 864.34 208.26 872.26 214.7 880.12 221.36 887.8 228.38 895.21 235.69 902.49 243.09 909.45 250.68 916 258.42 922.34 266.15 928.19 273.97 933.49 281.83 938.46 289.64 942.81 297.47 946.46 305.31 949.71 313.07 952.21 320.85 953.92 328.63 955.2 336.33 955.67 344.07 955.32 351.84 954.58 359.55 953.06 367.33 950.79 375.15 948.26 382.95 945.07 390.83 941.28 398.78 937.43 406.73 933.13 414.76 928.46 422.87 923.96 430.98 919.36 438.96 914.76 446.81 910.52 454.64 906.38 462.3 902.39 469.76 898.88 477.19 895.55 484.37 892.41 491.27 889.78 498.08 887.31 504.56 885 510.65 882.22 519.37 877.4 534.22 875.08 540.2 870.28 549.13 860.55 557.63 856.04 559.37 851.04 561.43 838.78 566.74 831.54 570.6 826.49 574.06 821.05 578.03 815.22 582.54 809.33 587.84 803.08 593.65 796.49 599.88 789.86 606.69 782.92 613.69 775.7 620.71 768.44 627.82 760.93 634.56 753.17 640.69 745.4 646.3 737.41 650.89 729.22 654.22 721.02 656.53 712.82 657.31 704.65 656.57 696.49 654.72 688.35 651.47 680.26 646.95 672.19 641.62 664.16 635.33 656.21 628.3 648.27 620.94 640.4 613.19 632.63 605.25 624.87 597.48 617.2 589.79 609.67 582.32 602.14 575.35 594.75 568.73 587.52 562.51 580.32 556.91 573.28 551.69 566.45 546.84 559.66 542.56 553.08 538.53 546.76 534.69 540.51 531.26 534.52 527.87 528.84 524.45 523.25 521.27 517.99 517.93 513.08 514.36 506.09 509 494.29 496.57 489.57 489.37 486.72 484.4 484.33 479.02 482.42 473.22 480.65 467.39 479.36 461.15 478.55 454.55 477.88 447.91 477.68 440.91 477.97 433.58 478.36 426.23 479.21 418.56 480.54 410.59 481.91 402.62 483.69 394.55 485.84 386.4 487.99 378.26 490.47 370.04 493.26 361.79 495.99 353.54 498.99 345.25 502.25 336.95 505.41 328.65 508.81 320.35 512.41 312.08 515.89 303.84 519.56 295.64 523.42 287.54 527.14 279.5 531.05 271.6 535.12 263.88 539.06 256.29 543.17 248.94 547.46 241.91 551.62 235.08 555.96 228.64 560.48 222.65 564.9 216.95 569.51 211.76 574.31 207.15 579.03 202.88 583.96 199.23 589.09 196.22 596.81 192.5 613.28 188.51 622.05 188 627.94 187.87 634.06 188.08 640.41 188.57 646.74 188.85 653.31 189.24 660.11 189.66 666.89 189.64 673.91 189.52 681.16 189.26 688.4 188.42 695.87 187.4 703.59 186.22" stroke-dasharray="4 6" transform="rotate(24, 711, 400)" opacity="0.37"></path><path d="M710.35 204.22C717.59 202.6 724.89 200.96 732.24 199.38 739.59 197.53 747 195.89 754.45 194.53 761.92 193.14 769.43 192.19 776.96 191.73 784.51 191.45 792.08 191.77 799.66 192.72 807.24 193.99 814.82 195.92 822.36 198.51 829.9 201.47 837.38 205.06 844.76 209.24 852.12 213.75 859.34 218.8 866.38 224.31 873.34 230.08 880.08 236.24 886.53 242.72 892.85 249.36 898.82 256.26 904.39 263.34 909.75 270.5 914.65 277.8 919.03 285.2 923.13 292.61 926.65 300.08 929.55 307.58 932.11 315.07 934.02 322.58 935.23 330.09 936.11 337.57 936.29 345.06 935.76 352.55 934.94 360.02 933.46 367.49 931.33 374.96 929 382.42 926.12 389.9 922.71 397.36 919.27 404.83 915.42 412.3 911.23 419.75 907.18 427.2 903.02 434.45 898.81 441.48 894.89 448.5 891.01 455.29 887.22 461.81 883.8 468.29 880.5 474.48 877.34 480.35 873.25 488.88 866.18 503.91 863.06 510.31 857.71 520.8 849.24 532.35 845.83 535.05 842.2 537.78 833.33 543.36 828.01 546.66 824.31 549.44 820.24 552.52 815.82 555.94 811.35 560 806.52 564.47 801.34 569.35 796.12 574.83 790.57 580.66 784.7 586.75 778.8 593.23 772.59 599.77 766.11 606.22 759.6 612.67 752.83 618.72 745.81 624.17 738.79 629.16 731.53 633.23 724.05 636.22 716.58 638.35 709.07 639.17 701.57 638.68 694.07 637.26 686.58 634.62 679.11 630.85 671.66 626.36 664.24 620.98 656.88 614.86 649.53 608.37 642.24 601.42 635.04 594.18 627.86 586.95 620.77 579.65 613.8 572.41 606.85 565.48 600.03 558.74 593.36 552.25 586.73 546.22 580.27 540.47 574 535.02 567.78 530.03 561.78 525.28 556.01 520.74 550.32 516.58 544.89 512.53 539.74 508.53 532.32 502.92 519.28 491.5 513.74 485.43 508.79 479.22 501.1 465.34 498.43 457.6 496.92 452.31 495.86 446.69 495.24 440.72 494.73 434.75 494.67 428.44 495.05 421.8 495.53 415.16 496.43 408.2 497.77 400.95 499.15 393.69 500.91 386.31 503.01 378.84 505.11 371.38 507.52 363.85 510.22 356.26 512.87 348.7 515.78 341.09 518.93 333.49 522 325.92 525.28 318.37 528.76 310.87 532.14 303.44 535.71 296.09 539.45 288.87 543.07 281.76 546.86 274.81 550.8 268.1 554.63 261.54 558.62 255.27 562.77 249.33 566.8 243.6 571 238.27 575.36 233.38 581.83 226.68 595.52 216.26 602.76 212.62 610.09 209.88 625.65 207.12 633.91 206.89 639.44 206.83 645.19 207.02 651.15 207.42 657.08 207.59 663.23 207.82 669.6 208.07 675.95 207.9 682.52 207.65 689.32 207.28 696.1 206.4 703.11 205.37 710.35 204.22" stroke-dasharray="4 6" transform="rotate(28, 711, 400)" opacity="0.42"></path><path d="M717.17 222.22C723.91 220.7 730.7 219.18 737.53 217.72 744.37 216 751.25 214.47 758.14 213.17 765.05 211.81 771.98 210.8 778.91 210.2 785.85 209.72 792.79 209.74 799.69 210.27 806.6 211.04 813.46 212.39 820.25 214.29 827.03 216.5 833.71 219.27 840.25 222.57 846.76 226.17 853.1 230.27 859.23 234.82 865.28 239.62 871.08 244.83 876.59 250.37 881.96 256.1 887 262.12 891.65 268.38 896.11 274.75 900.14 281.3 903.69 288 907 294.75 909.81 301.61 912.05 308.54 914.04 315.49 915.45 322.49 916.27 329.51 916.82 336.53 916.79 343.56 916.16 350.58 915.3 357.6 913.88 364.61 911.92 371.59 909.82 378.56 907.23 385.51 904.2 392.4 901.15 399.29 897.73 406.14 894.01 412.9 890.39 419.67 886.64 426.19 882.83 432.45 879.24 438.71 875.64 444.69 872.07 450.38 867.2 458.73 858.29 473.78 854.25 480.42 847.44 491.95 838.05 505.84 834.87 509.44 828.15 516.31 816.07 527.11 811.13 531.46 805.89 536.71 793.86 549.34 787.06 556.76 782.41 562.24 777.46 567.92 772.22 573.73 766.96 579.78 761.42 585.79 755.62 591.63 749.8 597.4 743.74 602.77 737.43 607.58 731.11 611.97 724.57 615.56 717.82 618.22 711.07 620.17 704.27 621 697.46 620.72 690.65 619.68 683.84 617.58 677.04 614.51 670.25 610.8 663.49 606.27 656.77 601.05 650.07 595.45 643.43 589.36 636.86 582.9 630.31 576.36 623.85 569.64 617.51 562.85 611.19 556.2 605 549.62 598.95 543.15 592.94 536.99 587.1 531 581.44 525.21 575.84 519.76 570.44 514.51 565.27 509.44 560.17 504.69 555.32 500.07 550.73 495.54 544.14 489.14 532.62 476.58 527.77 470.22 523.44 463.86 516.82 450.28 514.57 442.94 512.89 435.38 511.7 418.92 512.19 410.02 512.73 403.98 513.66 397.68 514.99 391.12 516.37 384.56 518.09 377.9 520.12 371.17 522.15 364.46 524.48 357.69 527.06 350.89 529.61 344.12 532.41 337.34 535.43 330.6 538.38 323.89 541.54 317.24 544.88 310.68 548.14 304.2 551.58 297.84 555.17 291.65 558.68 285.56 562.34 279.68 566.14 274.06 569.85 268.59 573.71 263.41 577.71 258.58 583.63 251.8 596.09 240.56 602.64 236.22 609.22 232.63 623.11 227.96 630.43 226.79 637.86 226.05 653.56 225.93 661.85 226.26 667.41 226.28 673.18 226.35 679.13 226.42 685.07 226.11 691.21 225.74 697.55 225.26 703.88 224.36 710.42 223.33 717.17 222.22" stroke-dasharray="1 4" transform="rotate(32, 711, 400)" opacity="0.47"></path><path d="M723.48 240.22C729.7 238.81 735.95 237.41 742.22 236.08 748.49 234.51 754.78 233.1 761.07 231.89 773.66 229.27 786.23 228 798.59 228.3 810.91 229.26 822.91 232.17 834.34 236.96 845.55 242.69 855.98 250.19 865.33 259.14 874.18 268.8 881.67 279.59 887.52 291.15 892.6 303.05 895.85 315.45 897.07 328.05 897.51 340.77 896 353.58 892.58 366.25 890.7 372.6 888.42 378.9 885.75 385.14 883.06 391.38 880.06 397.55 876.78 403.62 873.58 409.69 870.24 415.52 866.81 421.08 863.56 426.64 860.26 431.93 856.95 436.94 851.04 446.93 845.2 455.79 839.51 463.47 834.8 471.13 830.08 477.71 825.28 483.3 821.16 489.18 816.63 494.45 811.59 499.38 806.85 505.22 801.32 511.32 794.93 517.94 788.59 526.04 781.24 534.98 772.91 544.64 764.52 555.5 755.12 566.49 744.78 576.92 739.6 582.02 734.18 586.72 728.55 590.91 722.92 594.74 717.07 597.88 711.03 600.22 704.99 601.99 698.9 602.82 692.8 602.72 686.7 601.99 680.58 600.37 674.48 597.91 662.31 591.44 650.23 582.3 638.42 571.3 626.71 559.68 615.35 547.32 604.53 534.85 593.89 523.01 583.88 511.55 574.69 500.62 565.79 490.64 557.82 481.03 550.96 471.66 544.48 462.93 539.19 454.04 535.26 444.82 531.73 435.86 529.58 426.28 528.9 416.01 528.78 408.24 530.44 391.71 532.22 382.97 533.57 377.07 535.22 371.13 537.17 365.17 539.11 359.21 541.33 353.25 543.78 347.31 548.61 335.48 554.32 323.85 560.74 312.68 566.9 301.77 573.72 291.56 581.09 282.33 588.13 273.6 595.74 266.07 603.85 260.01 611.66 254.54 620.05 250.55 628.97 248.12 637.66 245.96 646.98 245 656.89 245.07 666.67 244.64 677.12 244.6 688.23 244.7 693.76 244.26 699.46 243.77 705.34 243.22 711.21 242.29 717.26 241.29 723.48 240.22" stroke-dasharray="6 0" transform="rotate(36, 711, 400)" opacity="0.53"></path><path d="M728.77 258.22C740.1 255.36 751.47 252.77 762.74 250.68 774.01 248.24 785.16 246.88 795.99 246.78 806.76 247.08 817.12 248.98 826.85 252.45 836.37 256.63 845.09 262.36 852.76 269.42 860.02 277.11 866.04 285.91 870.6 295.53 874.58 305.53 876.99 316.12 877.71 327.03 877.86 338.1 876.38 349.35 873.31 360.53 869.97 371.77 865.33 382.88 859.55 393.66 854.05 404.44 848.05 414.33 841.84 423.29 836.32 432.25 830.72 440.29 825.14 447.43 820.32 454.66 815.42 461.14 810.43 467 806 473.23 801.26 479.16 796.12 485 791.28 491.66 785.85 498.61 779.75 505.99 773.75 514.48 766.96 523.5 759.39 532.86 751.8 542.96 743.38 552.89 734.17 562.07 724.94 570.77 714.93 577.72 704.24 582.22 693.54 584.91 682.7 584.45 671.9 581.08 661.15 575.97 650.48 568.48 640.08 559.23 629.78 549.25 619.82 538.31 610.36 526.94 601.07 515.81 592.37 504.7 584.43 493.87 576.75 483.64 569.91 473.68 564.08 463.97 558.57 454.77 554.12 445.57 550.88 436.31 547.97 427.29 546.28 417.96 545.9 408.28 545.8 398.66 546.96 388.55 549.45 378.02 552.06 367.48 555.77 357.02 560.38 346.81 564.93 336.67 570.29 326.88 576.32 317.68 582.15 308.69 588.61 300.44 595.57 293.18 602.29 286.26 609.53 280.44 617.22 275.88 624.67 271.67 632.63 268.67 641.05 266.88 649.28 265.12 658.05 264.28 667.31 264.18 676.46 263.52 686.18 263.15 696.43 262.89 706.64 261.5 717.43 259.93 728.77 258.22" stroke-dasharray="2 2" transform="rotate(40, 711, 400)" opacity="0.58"></path><path d="M732.6 276.22C742.77 273.65 752.87 271.37 762.77 269.53 772.67 267.33 782.34 265.99 791.64 265.66 800.86 265.52 809.61 266.65 817.72 269.06 825.63 271.94 832.78 276.14 838.95 281.5 844.79 287.35 849.55 294.23 853.04 301.93 856.12 309.96 857.87 318.64 858.23 327.73 858.19 336.99 856.82 346.53 854.12 356.13 851.27 365.79 847.3 375.43 842.32 384.89 837.56 394.34 832.29 403.15 826.73 411.26 821.67 419.38 816.42 426.87 811.1 433.76 806.33 440.77 801.43 447.34 796.41 453.56 791.84 460.15 787 466.64 781.86 473.15 776.99 480.31 771.67 487.73 765.85 495.41 760.15 503.84 753.84 512.54 746.94 521.28 740.05 530.4 732.51 539.15 724.34 547.06 716.16 554.49 707.36 560.38 698 564.22 688.63 566.66 679.18 566.53 669.8 564.01 660.45 560.11 651.21 554.16 642.24 546.61 633.35 538.32 624.79 528.98 616.7 519.03 608.76 509.03 601.36 498.8 594.66 488.59 588.16 478.7 582.43 468.92 577.58 459.33 572.99 450.08 569.34 440.9 566.74 431.8 564.41 422.89 563.14 413.89 563.01 404.81 563.11 395.78 564.31 386.57 566.68 377.21 569.15 367.86 572.6 358.81 576.86 350.18 581.08 341.59 586.05 333.5 591.62 326.06 597.06 318.75 603.08 312.2 609.57 306.55 615.88 301.1 622.67 296.61 629.86 293.15 636.88 289.83 644.34 287.46 652.19 286.02 659.9 284.44 668.06 283.53 676.61 283.18 685.09 282.26 694.02 281.56 703.36 280.98 712.67 279.45 722.44 277.85 732.6 276.22" stroke-dasharray="6 1" transform="rotate(44, 711, 400)" opacity="0.63"></path><path d="M734.68 294.22C743.61 291.95 752.39 289.98 760.91 288.42 769.42 286.5 777.63 285.28 785.42 284.86 793.14 284.47 800.37 285.07 806.97 286.69 813.42 288.57 819.15 291.53 824.02 295.47 828.64 299.72 832.33 304.9 834.97 310.84 837.31 317.03 838.57 323.87 838.69 331.19 838.56 338.64 837.34 346.46 835.03 354.48 832.64 362.55 829.3 370.75 825.09 378.96 821.04 387.16 816.49 394.98 811.61 402.36 807.07 409.77 802.28 416.81 797.33 423.5 792.79 430.33 788.06 436.95 783.18 443.4 778.65 450.15 773.87 456.91 768.85 463.71 764.06 470.97 758.92 478.39 753.42 485.91 748.04 493.89 742.2 501.9 735.93 509.74 729.69 517.73 722.96 525.23 715.77 531.89 708.58 538.09 700.91 543 692.82 546.22 684.73 548.39 676.62 548.51 668.62 546.71 660.64 543.86 652.8 539.29 645.23 533.34 637.73 526.71 630.54 519.06 623.79 510.71 617.16 502.16 611.02 493.2 605.5 484.07 600.14 475.05 595.45 465.98 591.53 457 587.81 448.21 584.89 439.47 582.88 430.86 581.07 422.37 580.17 413.92 580.25 405.56 580.49 397.23 581.69 388.92 583.9 380.7 586.2 372.47 589.35 364.7 593.21 357.47 597.06 350.25 601.57 343.6 606.63 337.61 611.61 331.69 617.11 326.47 623.04 322.05 628.85 317.7 635.1 314.13 641.7 311.39 648.18 308.63 655.05 306.6 662.24 305.26 669.34 303.69 676.8 302.62 684.57 301.96 692.28 300.78 700.35 299.79 708.72 298.94 717.06 297.34 725.74 295.75 734.68 294.22" stroke-dasharray="1 0" transform="rotate(48, 711, 400)" opacity="0.68"></path><path d="M734.81 312.22C742.47 310.26 749.91 308.61 757.05 307.33 764.18 305.74 770.97 304.71 777.33 304.3 786.56 303.98 802.11 307.41 808.12 311.25 813.12 316.13 818.7 329.68 819.14 338.01 818.98 343.81 817.94 350.04 816.03 356.58 814.08 363.15 811.35 369.99 807.86 377 804.49 384.01 800.64 390.87 796.45 397.53 792.5 404.22 788.25 410.77 783.8 417.16 779.62 423.66 775.22 430.1 770.66 436.48 766.34 443.07 761.8 449.7 757.06 456.34 752.49 463.26 747.65 470.23 742.56 477.17 737.56 484.33 732.23 491.38 726.61 498.12 721.02 504.86 715.08 511.09 708.83 516.53 702.58 521.59 695.99 525.58 689.13 528.22 682.26 530.11 675.44 530.4 668.76 529.19 662.1 527.22 655.6 523.87 649.37 519.36 643.19 514.31 637.32 508.31 631.84 501.63 626.45 494.69 621.5 487.26 617.08 479.56 612.78 471.81 609.05 463.9 605.99 455.97 603.05 448.1 600.8 440.24 599.31 432.48 597.96 424.79 597.37 417.17 597.6 409.7 597.96 402.26 599.12 394.94 601.13 387.82 603.22 380.69 606.02 374.09 609.44 368.05 612.86 362 616.87 356.52 621.36 351.66 625.8 346.8 630.7 342.56 635.99 338.98 641.21 335.38 646.81 332.41 652.72 330.06 658.55 327.61 664.72 325.71 671.14 324.31 677.51 322.66 684.17 321.38 691.05 320.42 697.91 319.03 705.02 317.82 712.33 316.77 719.63 315.15 727.15 313.62 734.81 312.22" stroke-dasharray="0 5" transform="rotate(52, 711, 400)" opacity="0.74"></path><path d="M733 330.22C745.72 326.56 757.41 324.37 767.54 323.88 777.5 323.01 785.66 324.59 791.45 328.57 796.84 332.84 799.68 339.56 799.65 348.24 799.29 357.1 796.29 367.63 790.63 379.36 785.29 391.09 778.31 402.95 770.44 414.57 763.25 426.47 755.12 438.57 746.4 450.49 738.16 462.94 728.99 475.21 719.1 486.29 709.35 497.05 698.61 505.53 687.22 510.22 675.83 512.85 664.87 510.7 654.9 504.64 645.05 496.97 636.38 486.41 629.49 474.3 622.89 461.79 618.25 448.47 616.05 435.29 614.21 422.18 614.87 409.26 618.36 397.23 622.05 385.2 628.09 375.09 635.8 367.06 643.43 358.94 652.66 352.77 662.91 348.55 673.01 343.85 684.21 340.54 696.03 338.48 707.78 335.09 720.28 332.27 733 330.22" stroke-dasharray="0 2" transform="rotate(56, 711, 400)" opacity="0.79"></path><path d="M729.39 348.22C739.48 345.33 748.56 343.74 756.28 343.51 766.94 343.48 779.29 352.45 780.25 361.42 780.02 368 777.76 376.15 773.41 385.61 769.25 395.08 763.66 405.02 757.21 415 751.14 425.12 744.2 435.45 736.74 445.5 729.58 455.71 721.71 465.52 713.4 474.11 705.19 482.33 696.37 488.7 687.26 492.22 678.15 494.46 669.58 493.24 661.95 489.16 654.38 484.01 647.86 476.54 642.79 467.64 637.88 458.33 634.53 448.1 633.1 437.73 631.89 427.31 632.62 416.93 635.59 407.17 638.69 397.4 643.66 389.13 649.98 382.46 656.29 375.66 663.89 370.26 672.32 366.28 680.7 361.85 689.93 358.44 699.58 356.04 709.2 352.74 719.3 350.05 729.39 348.22" stroke-dasharray="6 3" transform="rotate(60, 711, 400)" opacity="0.84"></path><path d="M724.28 366.22C735.07 363.57 751.56 363.29 756.69 366.05 760.31 370 760.1 384.36 756.18 394.57 753.15 401.77 748.97 409.46 744.04 417.25 739.31 425.08 733.83 433.03 727.93 440.65 722.17 448.25 715.9 455.4 709.38 461.5 702.91 467.3 696.11 471.75 689.24 474.22 682.37 475.99 676.06 475.43 670.57 472.94 665.09 469.84 660.48 465.04 656.98 459.1 653.56 452.86 651.31 445.76 650.48 438.33 649.75 430.83 650.46 423.16 652.81 415.75 655.25 408.34 659.08 401.87 663.91 396.45 668.76 390.94 674.6 386.32 681.05 382.66 687.49 378.71 694.56 375.47 701.88 373.05 709.2 370.09 716.8 367.74 724.28 366.22" stroke-dasharray="0 0" transform="rotate(64, 711, 400)" opacity="0.89"></path><path d="M718.08 384.22C731.58 381.38 742.89 391.49 738.95 404.55 735.09 414.28 728.03 425.32 719.76 435.22 711.72 444.91 702.24 452.86 693 456.22 683.75 458.35 676.39 455.07 672.05 448.37 667.81 441.08 666.78 431.32 670.04 421.36 673.46 411.41 680.53 403.1 689.21 397.28 697.93 390.89 708.25 386.15 718.08 384.22" stroke-dasharray="4 3" transform="rotate(68, 711, 400)" opacity="0.95"></path></g></svg>