<svg xmlns="http://www.w3.org/2000/svg" version="1.1" xmlns:xlink="http://www.w3.org/1999/xlink" xmlns:svgjs="http://svgjs.dev/svgjs" viewBox="0 0 1422 800" opacity="0.49"><defs><linearGradient x1="50%" y1="0%" x2="50%" y2="100%" id="ccchaos-grad"><stop stop-color="hsl(206, 75%, 49%)" stop-opacity="1" offset="0%"></stop><stop stop-color="hsl(331, 90%, 56%)" stop-opacity="1" offset="100%"></stop></linearGradient></defs><g stroke-width="2.5" stroke="url(#ccchaos-grad)" fill="none" stroke-linecap="round"><path d="M695.51 66.64C706.32 65.02 716.97 64.91 727.41 66.34 737.87 68.71 748.14 72.41 758.22 77.21 768.32 82.39 778.25 88.16 788.01 94.23 797.84 99.95 807.55 105.56 817.14 110.93 826.85 115.55 836.5 119.87 846.11 123.91 855.9 127.32 865.71 130.69 875.53 134.16 885.58 137.4 895.69 141.04 905.84 145.22 916.21 149.57 926.61 154.66 936.98 160.5 947.48 166.74 957.87 173.78 968.04 181.57 978.15 189.75 987.87 198.6 997.06 208.01 1005.93 217.71 1014.04 227.86 1021.24 238.35 1027.83 249 1033.32 259.89 1037.58 270.95 1041.06 282.06 1043.22 293.29 1044.05 304.57 1044.13 315.87 1042.97 327.21 1040.65 338.55 1037.93 349.9 1034.34 361.25 1030.08 372.58 1025.96 383.92 1021.57 395.23 1017.11 406.5 1013.38 417.76 1010.01 428.71 1007.09 439.3 1005.18 449.88 1003.76 460.1 1002.81 469.91 1002.75 479.71 1002.97 489.09 1003.33 498.03 1004.23 506.95 1004.96 515.44 1005.37 523.51 1005.87 531.59 1005.76 539.31 1004.93 546.69 1003.83 554.21 1001.82 561.52 998.86 568.7 995.44 576.21 991.01 583.75 985.63 591.41 979.76 599.59 972.98 608.03 965.39 616.74 957.39 626.02 948.69 635.55 939.4 645.25 929.84 655.25 919.8 665.15 909.4 674.71 898.86 683.99 888.05 692.47 877.03 699.88 865.99 706.37 854.8 711.42 843.53 714.86 832.29 717.19 820.98 717.97 809.66 717.34 798.38 716.15 787.09 714.15 775.81 711.73 764.56 709.86 753.32 708.35 742.1 707.51 730.9 708.11 719.71 709.69 708.56 712.19 697.4 715.92 686.53 719.9 675.95 723.69 665.35 727.44 655.03 730.1 644.99 731.34 634.93 731.46 625.13 729.75 615.62 726.23 606.07 721.45 596.78 715.13 587.76 707.58 578.68 699.45 569.85 690.69 561.28 681.64 552.61 672.88 544.19 664.31 536 656.1 527.7 648.67 519.63 641.72 511.79 635.22 503.81 629.48 496.06 624.01 488.55 618.68 480.92 613.78 473.52 608.74 466.4 603.42 459.18 598.19 452.25 592.47 445.65 586.2 439 579.79 432.71 572.74 426.83 565.08 420.97 557.21 415.56 548.74 410.64 539.74 405.8 530.55 401.49 520.9 397.76 510.86 394.14 500.7 391.12 490.23 388.73 479.51 386.49 468.74 384.87 457.77 383.92 446.66 383.1 435.54 382.94 424.31 383.44 412.99 384.04 401.68 385.27 390.56 387.09 379.64 388.94 368.7 391.34 357.95 394.23 347.37 397.1 336.74 400.43 326.25 404.18 315.89 407.84 305.43 411.89 295.05 416.29 284.72 420.55 274.26 425.15 263.81 430.06 253.4 434.82 242.83 439.88 232.3 445.24 221.83 450.46 211.29 456 200.9 461.83 190.74 467.57 180.7 473.64 171.05 480.04 161.94 486.38 153.19 493.08 145.17 500.13 138 507.18 131.38 514.6 125.73 522.37 121.09 530.16 116.97 538.33 113.76 546.82 111.38 555.37 109.16 564.25 107.43 573.44 106.01 582.67 104.19 592.19 102.28 601.97 100.14 611.78 97.17 621.83 93.82 632.07 90.12 642.34 85.69 652.79 81.21 663.38 76.92 673.97 72.61 684.69 69.08 695.5 66.65" stroke-dasharray="4 2" transform="rotate(0, 711, 400)" opacity="0.05"></path><path d="M695 79.56C705.37 77.96 715.61 77.8 725.7 79.07 735.8 81.23 745.76 84.68 755.58 89.19 765.43 94.12 775.15 99.68 784.76 105.61 794.43 111.29 804.02 116.95 813.53 122.45 823.16 127.3 832.75 131.87 842.32 136.18 852.05 139.86 861.8 143.44 871.56 147.02 881.51 150.29 891.48 153.83 901.46 157.76 911.6 161.73 921.72 166.3 931.74 171.52 941.83 177.02 951.74 183.25 961.36 190.18 970.86 197.45 979.93 205.38 988.42 213.89 996.56 222.7 1003.94 231.99 1010.42 241.69 1016.32 251.56 1021.16 261.75 1024.85 272.16 1027.83 282.66 1029.6 293.33 1030.14 304.1 1030.04 314.9 1028.82 325.78 1026.56 336.67 1023.96 347.57 1020.58 358.49 1016.58 369.37 1012.74 380.26 1008.63 391.12 1004.44 401.9 1000.9 412.68 997.66 423.13 994.8 433.23 992.84 443.32 991.3 453.05 990.16 462.39 989.86 471.73 989.79 480.69 989.86 489.26 990.47 497.85 990.94 506.08 991.16 513.96 991.53 521.92 991.38 529.61 990.61 537.08 989.66 544.74 987.91 552.3 985.33 559.81 982.37 567.68 978.5 575.64 973.76 583.75 968.58 592.33 962.55 601.13 955.74 610.14 948.56 619.58 940.68 629.14 932.19 638.72 923.44 648.42 914.19 657.85 904.52 666.78 894.71 675.3 884.57 682.93 874.19 689.44 863.75 695.04 853.13 699.25 842.39 701.98 831.64 703.72 820.8 704.11 809.92 703.28 799.06 702.05 788.17 700.17 777.27 697.98 766.4 696.39 755.53 695.15 744.67 694.54 733.83 695.27 723 696.87 712.2 699.28 701.4 702.81 690.87 706.57 680.62 710.15 670.36 713.75 660.36 716.39 650.64 717.77 640.89 718.18 631.39 716.92 622.17 713.98 612.89 709.88 603.86 704.27 595.09 697.4 586.25 689.89 577.64 681.63 569.27 672.92 560.81 664.33 552.57 655.74 544.56 647.36 536.44 639.6 528.52 632.21 520.83 625.22 513.02 618.94 505.42 612.96 498.06 607.19 490.58 601.91 483.34 596.63 476.37 591.2 469.31 585.99 462.55 580.44 456.11 574.48 449.63 568.5 443.51 562 437.8 554.98 432.11 547.82 426.85 540.12 422.09 531.91 417.4 523.55 413.24 514.73 409.63 505.48 406.15 496.15 403.24 486.44 400.96 476.44 398.81 466.38 397.29 456.07 396.41 445.55 395.67 435.02 395.57 424.31 396.11 413.44 396.76 402.58 398.02 391.82 399.85 381.2 401.71 370.56 404.1 360.03 406.97 349.62 409.81 339.16 413.1 328.78 416.78 318.48 420.38 308.11 424.35 297.78 428.65 287.49 432.83 277.1 437.32 266.75 442.1 256.44 446.73 246.06 451.66 235.75 456.86 225.59 461.93 215.44 467.28 205.52 472.91 195.93 478.44 186.54 484.28 177.62 490.42 169.31 496.49 161.39 502.89 154.22 509.61 147.9 516.31 142.1 523.35 137.18 530.73 133.19 538.11 129.6 545.83 126.79 553.87 124.66 561.94 122.57 570.33 120.84 579.02 119.32 587.73 117.33 596.73 115.21 605.99 112.85 615.27 109.7 624.79 106.21 634.51 102.44 644.26 98.04 654.19 93.63 664.28 89.45 674.38 85.3 684.63 81.9 694.99 79.56" stroke-dasharray="4 1" transform="rotate(4.125, 711, 400)" opacity="0.09"></path><path d="M695.32 92.47C705.26 90.9 715.11 90.68 724.86 91.81 734.62 93.78 744.29 96.96 753.85 101.19 763.44 105.85 772.96 111.18 782.39 116.93 791.88 122.52 801.33 128.19 810.72 133.77 820.22 138.79 829.71 143.59 839.18 148.16 848.78 152.11 858.39 155.92 868 159.68 877.76 163.06 887.51 166.6 897.23 170.41 907.05 174.14 916.79 178.35 926.39 183.08 935.99 187.98 945.35 193.51 954.37 199.67 963.23 206.11 971.62 213.17 979.4 220.8 986.82 228.7 993.49 237.11 999.27 245.95 1004.51 254.99 1008.76 264.38 1011.92 274.05 1014.45 283.83 1015.88 293.83 1016.18 303.97 1015.94 314.17 1014.68 324.47 1012.48 334.82 1010.02 345.2 1006.85 355.6 1003.11 365.99 999.53 376.39 995.7 386.75 991.76 397.06 988.42 407.36 985.31 417.34 982.51 427 980.52 436.65 978.89 445.97 977.59 454.95 977.05 463.93 976.73 472.59 976.53 480.93 976.85 489.31 977.07 497.42 977.09 505.26 977.29 513.22 977.06 521.01 976.31 528.66 975.45 536.53 973.9 544.37 971.62 552.24 969.04 560.43 965.66 568.75 961.47 577.21 956.92 586.06 951.57 595.06 945.49 604.19 939.06 613.59 931.96 623 924.26 632.26 916.3 641.48 907.83 650.29 898.92 658.48 889.84 666.18 880.41 672.93 870.71 678.54 860.92 683.29 850.91 686.73 840.74 688.81 830.54 690.07 820.22 690.14 809.83 689.18 799.44 687.96 789 686.23 778.53 684.29 768.07 682.96 757.6 682 747.13 681.61 736.67 682.44 726.21 684.05 715.77 686.37 705.34 689.71 695.16 693.24 685.24 696.63 675.31 700.07 665.63 702.67 656.21 704.14 646.76 704.8 637.54 703.94 628.58 701.55 619.57 698.08 610.79 693.17 602.24 687.01 593.63 680.16 585.23 672.47 577.05 664.22 568.79 655.91 560.73 647.46 552.88 639.06 544.94 631.11 537.19 623.41 529.65 616.03 522 609.28 514.56 602.81 507.35 596.59 500.04 590.87 492.97 585.24 486.16 579.58 479.28 574.21 472.69 568.64 466.42 562.8 460.13 557.03 454.2 550.86 448.65 544.27 443.15 537.63 438.07 530.52 433.47 522.94 428.95 515.28 424.94 507.16 421.47 498.62 418.13 490.02 415.36 481.02 413.18 471.69 411.14 462.32 409.71 452.64 408.91 442.7 408.25 432.75 408.2 422.56 408.79 412.16 409.48 401.76 410.76 391.39 412.59 381.09 414.45 370.78 416.83 360.51 419.66 350.31 422.47 340.08 425.71 329.89 429.33 319.74 432.86 309.54 436.75 299.37 440.96 289.25 445.05 279.08 449.44 268.96 454.11 258.93 458.63 248.9 463.43 239 468.48 229.3 473.4 219.71 478.59 210.41 484.04 201.52 489.38 192.88 495 184.78 500.91 177.31 506.73 170.24 512.86 163.92 519.28 158.41 525.67 153.34 532.37 149.09 539.38 145.64 546.38 142.49 553.69 139.98 561.31 138.01 568.94 135.97 576.88 134.19 585.09 132.52 593.33 130.34 601.84 128.01 610.6 125.44 619.38 122.13 628.4 118.53 637.64 114.71 646.88 110.34 656.33 106.02 665.95 101.98 675.58 97.99 685.38 94.73 695.32 92.47" stroke-dasharray="2 2" transform="rotate(8.25, 711, 400)" opacity="0.13"></path><path d="M696.45 105.38C705.98 103.85 715.47 103.58 724.88 104.57 734.3 106.34 743.67 109.27 752.97 113.2 762.3 117.59 771.59 122.65 780.82 128.19 790.11 133.66 799.37 139.27 808.6 144.88 817.92 150.03 827.24 155.01 836.53 159.8 845.94 164.02 855.34 168.09 864.72 172.07 874.2 175.62 883.64 179.25 893.01 183.04 902.43 186.67 911.72 190.64 920.82 195.03 929.87 199.48 938.64 204.45 947.03 209.97 955.22 215.68 962.91 221.96 969.99 228.78 976.71 235.82 982.68 243.37 987.81 251.36 992.43 259.54 996.12 268.1 998.81 276.97 1000.94 285.97 1002.07 295.22 1002.18 304.66 1001.82 314.17 1000.55 323.83 998.43 333.57 996.1 343.35 993.14 353.19 989.67 363.04 986.35 372.9 982.78 382.76 979.09 392.59 975.94 402.41 972.96 411.96 970.23 421.23 968.23 430.49 966.51 439.47 965.08 448.17 964.34 456.89 963.78 465.35 963.33 473.56 963.38 481.83 963.35 489.9 963.16 497.8 963.19 505.83 962.85 513.76 962.08 521.63 961.26 529.72 959.85 537.82 957.8 545.98 955.53 554.43 952.54 562.99 948.83 571.65 944.82 580.6 940.09 589.63 934.66 598.67 928.94 607.85 922.57 616.9 915.61 625.68 908.41 634.28 900.69 642.36 892.53 649.74 884.2 656.56 875.49 662.42 866.47 667.17 857.36 671.13 848 673.88 838.44 675.41 828.84 676.26 819.08 676.09 809.22 675.06 799.35 673.9 789.39 672.35 779.38 670.66 769.38 669.59 759.33 668.88 749.28 668.69 739.23 669.62 729.16 671.23 719.1 673.46 709.04 676.62 699.22 679.93 689.63 683.11 680.04 686.39 670.67 688.92 661.54 690.47 652.39 691.33 643.45 690.83 634.74 688.93 625.99 686.06 617.44 681.82 609.12 676.37 600.73 670.21 592.53 663.15 584.55 655.44 576.48 647.54 568.6 639.36 560.92 631.09 553.16 623.1 545.57 615.24 538.2 607.61 530.73 600.48 523.46 593.6 516.41 586.96 509.29 580.8 502.39 574.77 495.76 568.8 489.08 563.16 482.68 557.43 476.59 551.54 470.51 545.8 464.77 539.77 459.41 533.43 454.1 527.11 449.21 520.4 444.79 513.29 440.45 506.14 436.61 498.59 433.29 490.64 430.1 482.64 427.46 474.26 425.4 465.53 423.48 456.78 422.15 447.69 421.42 438.3 420.83 428.91 420.84 419.23 421.46 409.3 422.19 399.37 423.48 389.42 425.3 379.48 427.17 369.54 429.51 359.6 432.31 349.69 435.08 339.76 438.26 329.84 441.81 319.96 445.28 310.05 449.1 300.18 453.21 290.37 457.21 280.56 461.5 270.84 466.06 261.25 470.47 251.71 475.15 242.37 480.07 233.29 484.86 224.38 489.9 215.82 495.18 207.72 500.35 199.9 505.78 192.64 511.47 186.03 517.07 179.79 522.95 174.27 529.11 169.5 535.21 165.09 541.6 161.4 548.28 158.39 554.93 155.57 561.88 153.26 569.11 151.36 576.33 149.31 583.85 147.42 591.63 145.57 599.42 143.2 607.48 140.66 615.78 137.9 624.09 134.45 632.65 130.77 641.42 126.93 650.2 122.62 659.19 118.41 668.37 114.5 677.54 110.67 686.91 107.55 696.45 105.38" stroke-dasharray="1 4" transform="rotate(12.375, 711, 400)" opacity="0.17"></path><path d="M698.33 118.29C707.47 116.8 716.59 116.48 725.67 117.34 734.76 118.92 743.83 121.59 752.85 125.24 761.9 129.33 770.93 134.12 779.93 139.42 788.98 144.72 798.02 150.23 807.03 155.81 816.11 161.03 825.19 166.15 834.25 171.12 843.38 175.58 852.49 179.89 861.56 184.09 870.68 187.86 879.74 191.65 888.68 195.51 897.63 199.14 906.41 203.02 914.95 207.19 923.41 211.34 931.55 215.91 939.28 220.92 946.79 226.05 953.79 231.67 960.18 237.78 966.21 244.06 971.53 250.81 976.04 258 980.09 265.34 983.28 273.08 985.54 281.16 987.32 289.35 988.18 297.83 988.13 306.54 987.69 315.33 986.43 324.29 984.41 333.39 982.23 342.53 979.47 351.77 976.25 361.06 973.17 370.37 969.86 379.72 966.42 389.08 963.45 398.43 960.61 407.57 957.96 416.48 955.95 425.4 954.18 434.1 952.63 442.58 951.71 451.09 950.94 459.41 950.27 467.55 950.06 475.76 949.8 483.85 949.4 491.83 949.24 499.95 948.78 508.02 947.94 516.07 947.12 524.32 945.8 532.61 943.91 540.96 941.88 549.53 939.22 558.17 935.91 566.86 932.37 575.72 928.16 584.58 923.33 593.34 918.23 602.12 912.53 610.65 906.27 618.79 899.79 626.67 892.79 633.94 885.35 640.45 877.75 646.4 869.76 651.4 861.44 655.34 853.01 658.57 844.31 660.72 835.38 661.78 826.4 662.31 817.24 661.98 807.94 660.94 798.61 659.88 789.18 658.52 779.66 657.09 770.15 656.28 760.57 655.8 750.95 655.8 741.33 656.81 731.68 658.41 722.01 660.54 712.34 663.52 702.88 666.63 693.64 669.61 684.39 672.71 675.34 675.16 666.51 676.75 657.65 677.77 648.99 677.59 640.53 676.14 632.04 673.82 623.73 670.22 615.62 665.46 607.46 660 599.48 653.61 591.68 646.51 583.82 639.12 576.13 631.33 568.63 623.33 561.05 615.46 553.66 607.6 546.45 599.84 539.17 592.48 532.09 585.3 525.23 578.32 518.3 571.77 511.61 565.36 505.17 559.05 498.7 553.09 492.51 547.11 486.63 541.05 480.76 535.2 475.23 529.17 470.08 522.9 464.98 516.73 460.3 510.25 456.05 503.44 451.92 496.65 448.25 489.51 445.09 482.01 442.06 474.5 439.56 466.62 437.62 458.41 435.82 450.18 434.59 441.63 433.94 432.76 433.42 423.88 433.48 414.7 434.13 405.25 434.89 395.79 436.19 386.29 438 376.76 439.85 367.23 442.17 357.68 444.91 348.14 447.64 338.6 450.76 329.06 454.23 319.56 457.63 310.07 461.36 300.63 465.39 291.28 469.3 281.96 473.5 272.77 477.94 263.77 482.26 254.86 486.82 246.2 491.61 237.86 496.28 229.71 501.18 221.96 506.31 214.7 511.32 207.72 516.58 201.3 522.07 195.51 527.47 190.05 533.13 185.25 539.04 181.12 544.88 177.27 551 174.02 557.37 171.35 563.71 168.75 570.33 166.56 577.2 164.67 584.06 162.55 591.19 160.51 598.58 158.47 605.96 155.9 613.6 153.17 621.48 150.23 629.36 146.67 637.48 142.94 645.82 139.1 654.16 134.87 662.71 130.78 671.47 127.02 680.23 123.35 689.18 120.37 698.33 118.29" stroke-dasharray="4 2" transform="rotate(16.5, 711, 400)" opacity="0.21"></path><path d="M700.87 131.2C709.63 129.75 718.39 129.39 727.13 130.12 735.88 131.52 744.63 133.95 753.36 137.3 762.11 141.1 770.85 145.6 779.57 150.62 788.34 155.71 797.1 161.08 805.84 166.58 814.63 171.8 823.41 176.99 832.15 182.09 840.94 186.75 849.69 191.29 858.36 195.71 867.07 199.71 875.67 203.69 884.12 207.69 892.54 211.42 900.76 215.29 908.7 219.38 916.54 223.36 924.03 227.67 931.08 232.32 937.92 237.01 944.24 242.13 949.95 247.65 955.34 253.29 960.03 259.36 963.98 265.83 967.51 272.42 970.24 279.4 972.12 286.73 973.59 294.15 974.24 301.88 974.06 309.87 973.56 317.92 972.33 326.19 970.41 334.64 968.38 343.12 965.83 351.75 962.85 360.49 960.02 369.23 956.95 378.07 953.74 386.97 950.96 395.87 948.25 404.62 945.69 413.2 943.7 421.8 941.88 430.24 940.25 438.53 939.17 446.86 938.22 455.06 937.34 463.15 936.89 471.31 936.4 479.41 935.81 487.45 935.45 495.6 934.85 503.75 933.94 511.91 933.08 520.22 931.79 528.57 930.02 536.95 928.16 545.48 925.75 554.03 922.78 562.55 919.62 571.15 915.88 579.65 911.55 587.96 907.02 596.17 901.92 604.04 896.29 611.45 890.47 618.52 884.16 624.94 877.4 630.58 870.5 635.68 863.2 639.87 855.56 643.07 847.82 645.66 839.78 647.29 831.49 647.98 823.15 648.27 814.59 647.84 805.87 646.84 797.13 645.91 788.23 644.76 779.24 643.59 770.24 643.02 761.14 642.76 751.98 642.93 742.82 644.01 733.6 645.6 724.35 647.63 715.09 650.43 706.01 653.33 697.12 656.11 688.22 659.04 679.5 661.4 670.97 663 662.42 664.15 654.04 664.22 645.85 663.17 637.62 661.35 629.57 658.36 621.69 654.27 613.76 649.5 606 643.8 598.41 637.36 590.76 630.56 583.28 623.27 575.97 615.65 568.6 608.05 561.41 600.34 554.4 592.62 547.33 585.18 540.45 577.83 533.79 570.63 527.09 563.78 520.61 557.06 514.39 550.44 508.15 544.15 502.18 537.89 496.53 531.62 490.89 525.58 485.59 519.43 480.66 513.13 475.79 506.96 471.32 500.57 467.28 493.94 463.35 487.35 459.87 480.48 456.88 473.31 454.02 466.15 451.67 458.67 449.85 450.89 448.18 443.1 447.04 435 446.46 426.6 446.02 418.19 446.13 409.49 446.81 400.52 447.59 391.54 448.89 382.5 450.67 373.43 452.5 364.36 454.78 355.27 457.46 346.19 460.14 337.11 463.19 328.06 466.58 319.06 469.91 310.09 473.56 301.19 477.48 292.42 481.31 283.72 485.4 275.18 489.74 266.87 493.95 258.69 498.41 250.79 503.08 243.25 507.62 235.91 512.39 228.99 517.38 222.57 522.25 216.4 527.34 210.78 532.66 205.74 537.88 200.98 543.34 196.8 549.02 193.21 554.64 189.8 560.5 186.89 566.61 184.44 572.66 181.98 578.98 179.81 585.53 177.86 592.06 175.63 598.84 173.43 605.87 171.18 612.88 168.42 620.13 165.51 627.62 162.42 635.1 158.79 642.82 155.03 650.75 151.22 658.68 147.09 666.83 143.13 675.19 139.53 683.54 136.03 692.1 133.19 700.87 131.2" stroke-dasharray="1 3" transform="rotate(20.625, 711, 400)" opacity="0.25"></path><path d="M703.93 144.11C712.31 142.7 720.71 142.31 729.11 142.92 737.51 144.14 745.92 146.33 754.32 149.4 762.74 152.89 771.17 157.08 779.57 161.81 788.01 166.66 796.45 171.83 804.85 177.19 813.29 182.36 821.7 187.57 830.06 192.74 838.45 197.54 846.78 202.26 855 206.88 863.22 211.11 871.31 215.29 879.21 219.46 887.07 223.34 894.69 227.3 902.01 231.4 909.2 235.33 916.03 239.5 922.42 243.94 928.59 248.35 934.25 253.09 939.33 258.18 944.1 263.31 948.22 268.82 951.64 274.7 954.7 280.66 957.02 286.97 958.58 293.63 959.78 300.35 960.24 307.39 959.97 314.7 959.43 322.06 958.25 329.67 956.45 337.49 954.57 345.34 952.23 353.37 949.48 361.56 946.88 369.76 944.05 378.09 941.07 386.54 938.46 394.99 935.9 403.36 933.43 411.63 931.46 419.91 929.62 428.1 927.92 436.2 926.71 444.34 925.6 452.41 924.54 460.42 923.88 468.49 923.18 476.53 922.39 484.56 921.85 492.68 921.1 500.8 920.09 508.93 919.17 517.16 917.87 525.41 916.18 533.65 914.44 541.97 912.22 550.24 909.51 558.42 906.67 566.58 903.3 574.56 899.42 582.26 895.37 589.79 890.8 596.91 885.74 603.5 880.52 609.73 874.84 615.3 868.72 620.1 862.48 624.39 855.84 627.83 848.86 630.38 841.78 632.42 834.39 633.63 826.74 634.03 819.03 634.16 811.09 633.7 802.96 632.78 794.8 632 786.47 631.07 778.01 630.16 769.53 629.82 760.94 629.77 752.27 630.08 743.59 631.22 734.82 632.78 726 634.72 717.17 637.35 708.49 640.04 699.97 642.63 691.44 645.37 683.06 647.63 674.85 649.22 666.62 650.45 658.54 650.74 650.62 650.03 642.67 648.67 634.88 646.23 627.24 642.77 619.57 638.67 612.04 633.68 604.68 627.92 597.27 621.76 590.01 615.05 582.92 607.94 575.79 600.73 568.81 593.31 562.02 585.79 555.19 578.42 548.54 571.06 542.11 563.77 535.65 556.75 529.41 549.82 523.42 542.98 517.44 536.42 511.72 529.91 506.31 523.43 500.93 517.16 495.87 510.85 491.17 504.46 486.55 498.21 482.3 491.82 478.48 485.25 474.76 478.76 471.48 472.05 468.66 465.1 465.98 458.18 463.78 451 462.09 443.56 460.54 436.13 459.5 428.42 459 420.44 458.63 412.46 458.79 404.22 459.48 395.72 460.28 387.21 461.57 378.66 463.32 370.09 465.12 361.52 467.35 352.94 469.97 344.39 472.59 335.86 475.56 327.37 478.86 318.96 482.12 310.59 485.67 302.34 489.49 294.24 493.22 286.23 497.21 278.42 501.44 270.87 505.55 263.46 509.89 256.36 514.44 249.64 518.87 243.1 523.52 236.99 528.36 231.36 533.1 225.95 538.04 221.04 543.19 216.67 548.25 212.49 553.52 208.82 559.01 205.65 564.42 202.57 570.05 199.89 575.91 197.57 581.71 195.16 587.75 192.95 594.02 190.89 600.24 188.52 606.71 186.13 613.4 183.69 620.07 180.76 626.98 177.7 634.1 174.49 641.22 170.81 648.56 167.05 656.11 163.29 663.66 159.28 671.42 155.47 679.4 152.03 687.36 148.7 695.54 146.01 703.93 144.11" stroke-dasharray="0 3" transform="rotate(24.75, 711, 400)" opacity="0.29"></path><path d="M707.36 157.02C715.37 155.66 723.4 155.23 731.43 155.74 739.47 156.79 747.52 158.74 755.57 161.52 763.63 164.72 771.7 168.59 779.74 173.01 787.81 177.58 795.87 182.51 803.88 187.69 811.92 192.75 819.92 197.9 827.84 203.08 835.77 207.96 843.61 212.8 851.32 217.57 859.02 222 866.55 226.38 873.87 230.73 881.13 234.78 888.13 238.88 894.81 243.06 901.36 247.04 907.53 251.18 913.27 255.52 918.8 259.77 923.83 264.28 928.31 269.07 932.5 273.85 936.1 278.94 939.04 284.36 941.68 289.8 943.64 295.58 944.92 301.66 945.9 307.79 946.21 314.22 945.87 320.93 945.33 327.68 944.2 334.68 942.53 341.92 940.8 349.18 938.65 356.65 936.14 364.32 933.76 371.99 931.16 379.84 928.4 387.85 925.96 395.86 923.54 403.85 921.17 411.8 919.24 419.75 917.4 427.67 915.65 435.55 914.33 443.46 913.08 451.35 911.87 459.21 911.02 467.12 910.14 475.03 909.17 482.92 908.45 490.88 907.55 498.85 906.42 506.8 905.41 514.81 904.09 522.79 902.43 530.72 900.76 538.66 898.68 546.49 896.17 554.15 893.58 561.73 890.53 569.06 887.02 576.04 883.38 582.8 879.27 589.11 874.72 594.86 870.03 600.25 864.91 604.99 859.38 608.99 853.74 612.54 847.72 615.33 841.36 617.32 834.91 618.91 828.15 619.78 821.12 619.99 814.03 620.02 806.7 619.58 799.16 618.78 791.58 618.17 783.82 617.47 775.9 616.8 767.98 616.68 759.9 616.81 751.72 617.25 743.54 618.43 735.24 619.97 726.87 621.81 718.49 624.27 710.22 626.76 702.09 629.16 693.95 631.72 685.93 633.85 678.05 635.42 670.16 636.7 662.4 637.16 654.78 636.74 647.13 635.77 639.62 633.84 632.25 630.97 624.86 627.52 617.59 623.21 610.48 618.14 603.33 612.66 596.33 606.59 589.48 600.06 582.6 593.35 575.87 586.35 569.33 579.16 562.76 572.02 556.37 564.81 550.19 557.59 544 550.55 538.03 543.54 532.3 536.6 526.59 529.87 521.14 523.19 515.98 516.54 510.87 510.09 506.08 503.63 501.63 497.13 497.26 490.78 493.26 484.33 489.65 477.78 486.16 471.31 483.08 464.69 480.45 457.89 477.95 451.14 475.9 444.18 474.35 437.02 472.92 429.87 471.98 422.5 471.55 414.91 471.25 407.32 471.44 399.5 472.15 391.47 472.96 383.44 474.24 375.38 475.95 367.33 477.72 359.29 479.89 351.27 482.44 343.3 484.98 335.36 487.88 327.49 491.08 319.73 494.24 312.02 497.69 304.46 501.4 297.1 505.04 289.81 508.92 282.76 513.02 276 517.03 269.36 521.26 263.05 525.68 257.11 530 251.34 534.52 245.98 539.23 241.06 543.83 236.31 548.64 232.02 553.63 228.19 558.53 224.48 563.63 221.2 568.92 218.32 574.14 215.46 579.57 212.92 585.2 210.64 590.78 208.21 596.56 205.92 602.56 203.71 608.52 201.18 614.69 198.61 621.08 195.98 627.44 192.9 634.02 189.72 640.81 186.43 647.58 182.73 654.57 179 661.77 175.33 668.95 171.45 676.35 167.8 683.95 164.52 691.54 161.38 699.35 158.83 707.36 157.02" stroke-dasharray="2 3" transform="rotate(28.875000000000004, 711, 400)" opacity="0.33"></path><path d="M710.98 169.93C718.6 168.62 726.25 168.17 733.91 168.57 741.57 169.46 749.24 171.19 756.9 173.69 764.58 176.59 772.25 180.13 779.89 184.22 787.55 188.49 795.18 193.15 802.76 198.09 810.35 202.98 817.87 208.02 825.31 213.13 832.74 218.02 840.05 222.92 847.22 227.78 854.35 232.36 861.3 236.9 868.02 241.41 874.66 245.65 881.03 249.9 887.07 254.19 892.98 258.28 898.52 262.47 903.63 266.8 908.55 271 912.99 275.39 916.91 280 922.14 286.97 929.3 302.2 931.16 310.52 931.96 316.17 932.16 322.1 931.78 328.3 931.24 334.51 930.18 340.99 928.64 347.71 927.07 354.44 925.11 361.4 922.82 368.57 920.66 375.75 918.27 383.14 915.72 390.72 913.46 398.31 911.18 405.91 908.92 413.5 907.04 421.11 905.2 428.72 903.42 436.33 902.03 443.95 900.67 451.58 899.33 459.21 898.32 466.86 897.27 474.52 896.14 482.16 895.25 489.83 894.2 497.5 892.97 505.11 891.86 512.74 890.49 520.3 888.82 527.76 887.19 535.17 885.2 542.41 882.85 549.43 880.45 556.32 877.64 562.9 874.44 569.1 871.14 575.05 867.43 580.53 863.31 585.45 859.09 590.04 854.47 594 849.47 597.28 844.38 600.18 838.93 602.4 833.14 603.94 827.29 605.17 821.12 605.8 814.68 605.89 808.19 605.88 801.45 605.51 794.48 604.86 787.49 604.44 780.29 603.95 772.92 603.52 765.53 603.6 757.99 603.89 750.31 604.44 742.63 605.65 734.83 607.16 726.91 608.9 719 611.19 711.17 613.49 703.44 615.7 695.71 618.08 688.07 620.08 680.55 621.59 673.03 622.9 665.6 623.49 658.3 623.32 650.99 622.69 643.78 621.19 636.71 618.86 629.61 616.01 622.64 612.36 615.8 607.97 608.95 603.19 602.22 597.79 595.64 591.9 589.05 585.78 582.61 579.31 576.34 572.58 570.06 565.81 563.95 558.89 558.05 551.89 552.15 544.98 546.47 538.05 541.03 531.14 535.61 524.38 530.45 517.63 525.57 510.92 520.75 504.36 516.23 497.81 512.05 491.24 507.94 484.81 504.19 478.32 500.82 471.78 497.55 465.32 494.69 458.75 492.25 452.07 489.93 445.44 488.04 438.67 486.62 431.75 485.32 424.84 484.48 417.77 484.12 410.53 483.88 403.3 484.11 395.89 484.83 388.32 485.64 380.75 486.89 373.2 488.56 365.69 490.29 358.19 492.39 350.74 494.86 343.39 497.32 336.05 500.12 328.83 503.22 321.75 506.28 314.72 509.62 307.87 513.21 301.23 516.74 294.68 520.51 288.37 524.49 282.36 528.38 276.46 532.49 270.88 536.78 265.67 540.98 260.58 545.37 255.87 549.94 251.56 554.42 247.36 559.08 243.56 563.91 240.15 571.13 235.29 586.37 227.11 594.41 223.55 599.77 221.05 605.32 218.64 611.07 216.27 616.78 213.57 622.68 210.84 628.79 208.04 634.86 204.85 641.13 201.58 647.61 198.24 654.06 194.56 660.71 190.9 667.56 187.32 674.4 183.6 681.44 180.12 688.68 177.02 695.91 174.05 703.35 171.65 710.98 169.93" stroke-dasharray="3 3" transform="rotate(33, 711, 400)" opacity="0.37"></path><path d="M714.59 182.84C721.83 181.59 729.09 181.11 736.35 181.41 743.61 182.16 750.87 183.67 758.12 185.9 765.38 188.5 772.62 191.72 779.82 195.47 787.04 199.42 794.21 203.77 801.31 208.43 808.41 213.09 815.43 217.95 822.34 222.93 829.23 227.76 835.99 232.64 842.58 237.53 849.13 242.19 855.48 246.84 861.59 251.47 867.61 255.86 873.35 260.25 878.78 264.67 884.07 268.88 888.99 273.16 893.51 277.53 899.8 283.94 909.7 297.42 913.19 304.6 915.81 311.95 918.04 327.83 917.7 336.39 917.18 342.17 916.21 348.2 914.8 354.47 913.38 360.74 911.61 367.24 909.53 373.96 907.57 380.69 905.4 387.63 903.05 394.79 900.96 401.95 898.82 409.14 896.67 416.36 894.84 423.59 893.03 430.84 891.25 438.11 889.8 445.38 888.36 452.66 886.91 459.95 885.77 467.24 884.57 474.53 883.3 481.79 882.25 489.05 881.07 496.27 879.73 503.41 878.52 510.53 877.09 517.53 875.41 524.38 873.78 531.15 871.85 537.71 869.6 544 867.34 550.13 864.74 555.92 861.78 561.31 857.07 568.79 845.72 580.73 839.1 585.01 832.02 588.24 816.18 591.5 807.5 591.77 801.57 591.78 795.39 591.51 788.98 591.03 782.55 590.79 775.91 590.53 769.08 590.31 762.23 590.57 755.22 591.01 748.05 591.66 740.88 592.89 733.57 594.34 726.14 595.99 718.7 598.11 711.32 600.24 704.02 602.26 696.72 604.45 689.49 606.32 682.35 607.76 675.2 609.05 668.15 609.74 661.19 609.76 654.23 609.41 647.37 608.31 640.61 606.45 633.85 604.15 627.2 601.11 620.67 597.39 614.13 593.28 607.72 588.58 601.45 583.36 595.17 577.89 589.04 572.02 583.07 565.84 577.11 559.56 571.32 553.07 565.72 546.43 560.14 539.81 554.77 533.11 549.63 526.37 544.53 519.72 539.68 513.06 535.1 506.4 530.58 499.86 526.35 493.31 522.44 486.76 518.61 480.31 515.12 473.84 511.99 467.34 508.96 460.91 506.31 454.42 504.06 447.87 501.92 441.36 500.2 434.76 498.9 428.06 497.73 421.39 496.99 414.6 496.7 407.7 496.52 400.81 496.78 393.8 497.5 386.68 498.31 379.56 499.54 372.5 501.16 365.53 502.83 358.57 504.86 351.7 507.23 344.96 509.61 338.23 512.31 331.65 515.28 325.24 518.24 318.87 521.46 312.7 524.92 306.77 528.33 300.9 531.97 295.28 535.82 289.96 539.59 284.72 543.56 279.79 547.72 275.2 553.92 268.6 567.07 257.21 574 252.38 580.99 247.85 595.71 239.87 603.44 236.21 608.6 233.61 613.94 231.06 619.45 228.53 624.92 225.68 630.57 222.8 636.4 219.87 642.2 216.6 648.18 213.28 654.35 209.93 660.5 206.3 666.83 202.73 673.35 199.28 679.85 195.72 686.55 192.43 693.42 189.51 700.29 186.72 707.35 184.46 714.59 182.84" stroke-dasharray="4 3" transform="rotate(37.125, 711, 400)" opacity="0.41"></path><path d="M718.02 195.75C724.87 194.55 731.72 194.06 738.55 194.28 745.4 194.88 752.23 196.19 759.04 198.16 765.85 200.46 772.64 203.35 779.37 206.76 786.1 210.37 792.78 214.39 799.37 218.73 805.96 223.13 812.44 227.75 818.81 232.53 825.14 237.23 831.33 242.02 837.33 246.85 843.29 251.52 849.03 256.2 854.54 260.89 859.95 265.38 865.09 269.88 869.91 274.39 874.61 278.72 878.96 283.1 882.93 287.53 888.43 294.02 897 307.41 899.98 314.41 902.21 321.5 904.01 336.63 903.65 344.7 903.16 350.14 902.27 355.81 901 361.69 899.72 367.56 898.13 373.66 896.26 379.97 894.5 386.28 892.52 392.8 890.38 399.53 888.45 406.26 886.45 413.03 884.42 419.84 882.66 426.65 880.89 433.49 879.12 440.34 877.63 447.19 876.13 454.05 874.62 460.89 873.36 467.73 872.05 474.54 870.66 481.3 869.48 488.04 868.18 494.7 866.74 501.25 865.43 507.75 863.93 514.1 862.22 520.26 859.62 529.22 853.12 545.49 849.13 552.58 844.78 558.91 834.41 568.8 828.38 572.26 821.97 574.86 807.59 577.45 799.67 577.67 794.27 577.75 788.63 577.61 782.75 577.31 776.86 577.26 770.75 577.2 764.45 577.19 758.13 577.6 751.64 578.16 744.99 578.89 738.33 580.12 731.52 581.53 724.58 583.08 717.63 585.04 710.72 586.99 703.86 588.83 697 590.83 690.2 592.56 683.46 593.92 676.73 595.18 670.06 595.92 663.48 596.09 656.9 595.98 650.41 595.2 644.01 593.76 637.61 591.95 631.31 589.47 625.12 586.37 618.93 582.91 612.86 578.88 606.93 574.35 601 569.56 595.2 564.35 589.57 558.79 583.95 553.09 578.5 547.13 573.24 540.97 568 534.78 562.96 528.45 558.15 522.03 553.38 515.64 548.85 509.2 544.58 502.74 540.37 496.34 536.45 489.92 532.82 483.49 529.28 477.14 526.05 470.77 523.17 464.38 520.38 458.06 517.95 451.7 515.89 445.3 513.94 438.95 512.38 432.55 511.22 426.09 510.16 419.66 509.51 413.16 509.29 406.6 509.16 400.05 509.45 393.43 510.17 386.75 510.97 380.08 512.17 373.51 513.73 367.06 515.34 360.62 517.29 354.31 519.56 348.15 521.85 342.01 524.43 336.03 527.28 330.25 530.12 324.5 533.21 318.96 536.53 313.66 539.81 308.4 543.31 303.4 547 298.67 552.56 291.8 564.47 279.59 570.79 274.25 577.17 269.21 590.62 260.33 597.67 256.37 604.8 252.35 619.75 244.49 627.59 240.46 632.83 237.49 638.23 234.49 643.8 231.47 649.34 228.16 655.04 224.82 660.91 221.5 666.76 217.96 672.78 214.51 678.97 211.2 685.14 207.83 691.49 204.73 698 201.99 704.5 199.39 711.18 197.28 718.02 195.75" stroke-dasharray="1 2" transform="rotate(41.25, 711, 400)" opacity="0.45"></path><path d="M721.09 208.66C727.52 207.52 733.95 207.02 740.35 207.16 746.76 207.63 753.14 208.75 759.49 210.47 765.83 212.49 772.14 215.06 778.38 218.12 784.61 221.38 790.77 225.04 796.83 229.04 802.88 233.13 808.82 237.46 814.62 241.99 820.38 246.48 825.99 251.1 831.41 255.8 842.09 264.84 851.87 274.05 860.49 283.32 868.67 291.97 875.49 300.83 880.71 309.94 884.09 316.61 888.51 330.44 889.55 337.68 889.99 345.03 888.78 360.57 887.24 368.8 886.11 374.34 884.7 380.07 883.02 385.99 881.44 391.91 879.66 398.02 877.7 404.32 875.93 410.62 874.08 416.96 872.17 423.32 870.49 429.68 868.77 436.06 867.03 442.43 865.53 448.79 864 455.15 862.44 461.47 861.09 467.77 859.69 474.02 858.22 480.19 856.92 486.32 855.52 492.35 854 498.23 852.6 504.05 851.03 509.69 849.29 515.11 846.01 525.62 841.8 535 836.58 542.9 831.35 550.05 824.96 555.5 817.47 559.1 811.63 561.22 798.55 563.39 791.34 563.65 783.86 563.82 767.73 563.91 759.14 564.14 753.34 564.69 747.36 565.36 741.22 566.15 735.07 567.37 728.76 568.72 722.31 570.17 715.86 571.98 709.43 573.74 703.03 575.41 696.63 577.24 690.27 578.81 683.97 580.08 677.66 581.29 671.42 582.05 665.24 582.33 659.07 582.39 652.96 581.88 646.95 580.8 640.94 579.42 635.02 577.44 629.21 574.9 623.4 572.05 617.7 568.67 612.14 564.8 601.03 556.35 590.48 546.34 580.64 535.27 570.92 523.89 561.99 511.89 554.05 499.6 550.17 493.48 546.55 487.33 543.22 481.15 539.97 475.01 537.01 468.85 534.38 462.67 531.83 456.54 529.62 450.39 527.76 444.22 525.99 438.09 524.58 431.93 523.55 425.75 522.62 419.59 522.06 413.4 521.9 407.2 521.82 401 522.14 394.77 522.85 388.54 523.63 382.3 524.79 376.2 526.28 370.25 527.82 364.31 529.69 358.52 531.85 352.9 534.03 347.3 536.49 341.87 539.2 336.65 543.38 328.96 552.84 314.73 558.05 308.24 561.54 304.02 565.21 300.06 569.05 296.35 576.56 288.95 584.73 282.47 593.46 276.87 601.96 270.95 611.07 265.55 620.71 260.49 627.92 256.25 643 247.45 650.88 242.84 656.15 239.52 661.58 236.22 667.15 232.97 672.7 229.55 678.41 226.24 684.26 223.1 690.1 219.93 696.1 217.03 702.24 214.48 708.37 212.05 714.66 210.09 721.09 208.66" stroke-dasharray="3 1" transform="rotate(45.375, 711, 400)" opacity="0.49"></path><path d="M723.64 221.58C735.65 219.69 747.59 220.15 759.32 222.83 771.04 226.59 782.52 232.25 793.58 239.39 804.58 246.93 815.05 255.41 824.8 264.44 834.33 273.22 842.99 282.28 850.53 291.46 857.7 300.17 863.61 309.05 868.09 318.13 872.09 326.85 874.63 335.94 875.62 345.46 876.27 354.81 875.56 364.74 873.54 375.25 871.6 385.71 868.71 396.83 865.03 408.56 861.97 420.29 858.57 432.09 854.98 443.79 852.21 455.45 849.21 466.94 845.97 478.03 843.36 488.96 840.28 499.3 836.65 508.76 833.33 517.82 829.2 525.76 824.23 532.31 819.3 538.27 813.37 542.74 806.48 545.64 799.51 548.18 791.54 549.47 782.67 549.74 773.7 550.45 763.87 550.83 753.3 551.18 742.68 552.85 731.36 554.91 719.46 557.26 707.56 560.83 695.68 563.97 683.96 566.24 672.26 568.45 660.73 568.96 649.53 567.6 638.35 565.3 627.51 560.92 617.14 554.68 606.84 547.55 597.06 538.9 587.97 529.11 579.01 518.92 570.81 507.98 563.54 496.61 556.5 485.21 550.47 473.56 545.62 461.84 541.1 450.19 537.81 438.46 535.92 426.76 534.36 415.1 534.2 403.4 535.52 391.8 537.11 380.19 540.03 369.21 544.09 358.95 548.23 348.71 553.4 339.23 559.42 330.6 565.35 322 572.07 314.25 579.43 307.39 586.61 300.45 594.43 294.25 602.76 288.73 610.91 282.81 619.62 277.27 628.81 271.99 637.86 265.95 647.45 259.93 657.53 253.98 667.52 247.28 678.06 240.83 689.09 234.98 700.09 229.08 711.62 224.44 723.64 221.58" stroke-dasharray="0 1" transform="rotate(49.5, 711, 400)" opacity="0.53"></path><path d="M725.53 234.49C736.66 232.69 747.67 232.98 758.41 235.25 769.14 238.46 779.58 243.43 789.56 249.8 799.47 256.62 808.84 264.42 817.47 272.86 825.92 281.21 833.52 289.94 840.08 298.87 846.32 307.46 851.43 316.25 855.25 325.2 858.71 333.85 860.87 342.79 861.69 352.02 862.27 361.1 861.65 370.61 859.88 380.55 858.2 390.44 855.66 400.84 852.36 411.69 849.57 422.54 846.39 433.34 842.97 443.93 840.22 454.48 837.19 464.74 833.9 474.51 831.16 484.12 827.98 493.07 824.32 501.13 820.96 508.85 816.91 515.51 812.14 520.9 807.46 525.88 801.93 529.58 795.57 531.99 789.17 534.24 781.89 535.5 773.8 535.96 765.66 536.93 756.72 537.64 747.08 538.29 737.41 540.09 727.07 542.14 716.17 544.35 705.27 547.59 694.35 550.38 683.56 552.42 672.8 554.49 662.17 555.12 651.84 554.18 641.54 552.53 631.56 549.07 622.02 543.97 612.57 538.09 603.6 530.76 595.29 522.3 587.12 513.39 579.66 503.66 573.06 493.4 566.69 483.01 561.26 472.28 556.92 461.4 552.87 450.54 549.95 439.58 548.31 428.65 546.97 417.75 546.9 406.86 548.19 396.12 549.73 385.37 552.49 375.27 556.3 365.88 560.19 356.49 565.05 347.82 570.7 339.91 576.31 331.98 582.65 324.77 589.6 318.3 596.43 311.67 603.84 305.62 611.75 300.08 619.51 294.13 627.78 288.45 636.49 282.99 645.09 276.87 654.17 270.82 663.67 264.92 673.1 258.45 683.01 252.31 693.34 246.83 703.64 241.39 714.39 237.13 725.53 234.49" stroke-dasharray="1 0" transform="rotate(53.62499999999999, 711, 400)" opacity="0.56"></path><path d="M726.66 247.4C736.9 245.69 746.95 245.84 756.69 247.73 766.43 250.43 775.82 254.72 784.74 260.32 793.59 266.38 801.88 273.43 809.46 281.16 816.89 288.93 823.51 297.16 829.17 305.66 834.59 313.96 838.99 322.48 842.24 331.16 845.23 339.62 847.09 348.3 847.78 357.19 848.32 365.95 847.8 375.02 846.27 384.37 844.85 393.69 842.63 403.36 839.68 413.31 837.16 423.27 834.22 433.05 830.99 442.51 828.3 451.94 825.3 460.99 822.02 469.48 819.2 477.82 815.97 485.48 812.31 492.28 808.94 498.81 804.97 504.38 800.4 508.84 795.93 513.04 790.74 516.18 784.84 518.28 778.95 520.36 772.29 521.68 764.93 522.37 757.53 523.58 749.42 524.57 740.68 525.49 731.91 527.37 722.53 529.39 712.62 531.44 702.71 534.35 692.76 536.82 682.93 538.62 673.12 540.51 663.43 541.2 654 540.57 644.62 539.44 635.53 536.77 626.87 532.66 618.28 527.91 610.16 521.84 602.65 514.68 595.28 507.09 588.57 498.65 582.67 489.6 576.96 480.38 572.12 470.73 568.28 460.87 564.69 450.96 562.14 440.92 560.74 430.87 559.6 420.84 559.61 410.81 560.87 400.94 562.33 391.06 564.92 381.78 568.46 373.16 572.1 364.53 576.62 356.52 581.88 349.18 587.13 341.78 593.07 334.97 599.58 328.75 606 322.34 612.97 316.36 620.4 310.78 627.73 304.81 635.52 299.05 643.72 293.49 651.82 287.39 660.35 281.42 669.24 275.66 678.08 269.5 687.33 263.75 696.92 258.68 706.49 253.69 716.43 249.82 726.66 247.4" stroke-dasharray="1 3" transform="rotate(57.75000000000001, 711, 400)" opacity="0.60"></path><path d="M726.99 260.31C736.3 258.71 745.38 258.73 754.13 260.27 762.87 262.49 771.24 266.14 779.12 270.97 786.94 276.25 794.22 282.48 800.82 289.43 807.29 296.49 813.02 304.06 817.88 311.97 822.56 319.79 826.33 327.87 829.11 336.11 831.7 344.21 833.31 352.51 833.91 360.94 834.42 369.29 834.02 377.84 832.72 386.56 831.53 395.25 829.61 404.16 827.01 413.21 824.75 422.27 822.06 431.03 819.04 439.4 816.45 447.74 813.53 455.63 810.31 462.93 807.48 470.12 804.26 476.63 800.65 482.34 795.35 490.22 782.34 501.3 774.44 504.61 768.99 506.63 762.9 508.06 756.21 508.99 749.49 510.41 742.16 511.64 734.27 512.76 726.36 514.69 717.91 516.64 708.98 518.53 700.04 521.12 691.08 523.28 682.21 524.84 673.36 526.53 664.63 527.22 656.15 526.82 647.71 526.08 639.53 524.04 631.76 520.78 624.07 517.04 616.81 512.11 610.11 506.17 603.55 499.86 597.59 492.7 592.37 484.92 587.33 476.94 583.07 468.48 579.72 459.73 576.58 450.92 574.37 441.9 573.2 432.83 572.25 423.75 572.34 414.64 573.54 405.63 574.93 396.63 577.32 388.14 580.59 380.21 583.95 372.26 588.11 364.83 592.97 357.95 597.82 350.99 603.32 344.49 609.35 338.45 615.33 332.22 621.82 326.32 628.73 320.72 635.57 314.79 642.84 309.04 650.46 303.49 658.02 297.53 665.96 291.74 674.2 286.24 682.41 280.46 690.96 275.14 699.77 270.51 708.58 266 717.68 262.5 726.99 260.31" stroke-dasharray="1 4" transform="rotate(61.875, 711, 400)" opacity="0.64"></path><path d="M726.49 273.22C734.86 271.74 742.97 271.65 750.73 272.88 758.48 274.66 765.85 277.69 772.75 281.79 779.59 286.28 785.91 291.68 791.61 297.77 797.2 304.03 802.12 310.82 806.28 317.99 810.3 325.15 813.53 332.61 815.9 340.24 818.15 347.81 819.55 355.56 820.1 363.41 820.59 371.21 820.3 379.15 819.22 387.17 818.25 395.16 816.61 403.27 814.34 411.41 812.34 419.55 809.89 427.32 807.11 434.66 804.66 441.97 801.87 448.79 798.77 455.04 795.98 461.21 792.82 466.75 789.32 471.57 784.15 478.3 771.79 487.99 764.45 491.11 759.43 493.13 753.87 494.68 747.8 495.84 741.73 497.43 735.13 498.85 728.05 500.12 720.97 502.03 713.41 503.89 705.44 505.61 697.47 507.91 689.48 509.77 681.58 511.09 673.7 512.57 665.94 513.21 658.4 512.95 650.91 512.49 643.67 510.96 636.8 508.4 630 505.49 623.61 501.56 617.73 496.74 611.96 491.6 606.75 485.68 602.21 479.13 597.81 472.4 594.12 465.16 591.24 457.57 588.53 449.91 586.66 441.99 585.7 433.94 584.93 425.88 585.07 417.73 586.21 409.6 587.51 401.48 589.7 393.75 592.68 386.47 595.74 379.17 599.54 372.27 603.96 365.8 608.4 359.25 613.43 353.04 618.94 347.18 624.43 341.15 630.39 335.37 636.74 329.85 643.04 324.05 649.73 318.43 656.74 313.02 663.7 307.31 670.99 301.82 678.54 296.67 686.06 291.35 693.87 286.51 701.88 282.34 709.89 278.3 718.12 275.19 726.49 273.22" stroke-dasharray="1 3" transform="rotate(66, 711, 400)" opacity="0.68"></path><path d="M725.18 286.13C732.6 284.78 739.74 284.6 746.54 285.55 753.32 286.94 759.73 289.39 765.69 292.79 771.61 296.53 777.04 301.08 781.91 306.29 786.7 311.68 790.9 317.61 794.43 323.92 797.87 330.29 800.63 336.97 802.65 343.84 804.6 350.71 805.84 357.75 806.35 364.88 806.84 371.99 806.65 379.2 805.78 386.43 805 393.66 803.62 400.92 801.66 408.14 799.91 415.36 797.73 422.18 795.2 428.55 792.93 434.91 790.3 440.79 787.38 446.13 783.18 453.8 773.37 466.13 767.67 470.74 761.73 474.84 747.83 480.76 739.84 482.94 734.39 484.66 728.49 486.19 722.2 487.55 715.91 489.41 709.22 491.15 702.19 492.7 695.16 494.7 688.13 496.28 681.2 497.38 674.28 498.63 667.48 499.19 660.9 499.01 654.35 498.72 648.04 497.57 642.07 495.57 636.16 493.35 630.62 490.26 625.55 486.4 620.57 482.31 616.09 477.5 612.2 472.11 608.44 466.56 605.3 460.51 602.86 454.08 600.57 447.57 599 440.76 598.24 433.76 597.63 426.75 597.82 419.57 598.89 412.33 600.08 405.1 602.06 398.14 604.74 391.5 607.49 384.85 610.9 378.48 614.87 372.42 618.86 366.29 623.39 360.41 628.35 354.8 633.32 349.05 638.71 343.49 644.44 338.15 650.16 332.61 656.22 327.25 662.55 322.11 668.86 316.78 675.46 311.7 682.27 306.98 689.06 302.18 696.08 297.86 703.26 294.16 710.43 290.61 717.76 287.87 725.18 286.13" stroke-dasharray="3 0" transform="rotate(70.125, 711, 400)" opacity="0.72"></path><path d="M723.14 299.04C729.6 297.82 735.79 297.59 741.64 298.29 747.48 299.33 752.98 301.26 758.05 304 768.12 310.3 776.4 319.3 782.42 329.98 788.21 340.98 791.72 353.16 792.69 365.73 793.17 372.02 793.07 378.39 792.39 384.76 791.78 391.14 790.65 397.51 788.99 403.81 787.48 410.11 785.56 416.03 783.31 421.52 781.24 427 778.83 432.05 776.14 436.63 771.27 445.74 765.06 452.98 757.71 458.17 750.7 463.66 742.21 467.65 732.46 470.3 725 472.87 708.43 477.62 699.4 479.79 693.29 481.5 687.2 482.82 681.22 483.7 675.25 484.73 669.4 485.18 663.76 485.03 652.55 484.58 642.29 481.22 633.64 475.24 625.28 468.67 618.73 459.7 614.59 449.08 612.69 443.69 611.41 437.96 610.83 431.99 610.36 426.01 610.58 419.81 611.56 413.47 612.64 407.14 614.4 400.96 616.77 394.99 619.2 389.01 622.2 383.21 625.7 377.63 632.77 366.31 641.7 355.57 651.87 345.68 662.01 335.28 673.38 325.57 685.43 317.21 691.45 312.98 697.64 309.2 703.95 306 710.26 302.93 716.68 300.56 723.14 299.04" stroke-dasharray="3 3" transform="rotate(74.25, 711, 400)" opacity="0.76"></path><path d="M720.47 311.95C731.48 310.05 741.44 311.39 749.97 315.45 758.41 320.35 765.31 327.59 770.32 336.36 775.21 345.48 778.21 355.74 779.12 366.43 780.08 377.17 779.18 388.23 776.31 398.99 773.9 409.75 769.99 419.18 765.03 427.02 760.55 434.88 754.87 441.25 748.23 446.04 741.86 451.16 734.29 455.12 725.73 457.95 717.24 461.7 707.63 464.78 697.21 466.88 686.78 469.97 676.57 471.41 667.09 471.06 657.7 470.75 649.16 468.13 642.03 463.4 635.12 458.34 629.75 451.23 626.43 442.6 623.43 433.8 622.57 423.73 624.23 412.87 626.21 402.01 630.48 391.4 636.46 381.4 642.56 371.27 650.28 361.53 659.06 352.53 667.86 343.25 677.71 334.66 688.1 327.39 698.5 320.18 709.46 314.74 720.47 311.95" stroke-dasharray="2 2" transform="rotate(78.375, 711, 400)" opacity="0.80"></path><path d="M717.31 324.86C726.42 323.19 734.6 324.08 741.57 327.13 748.48 330.79 754.12 336.36 758.23 343.27 762.28 350.47 764.82 358.72 765.66 367.44 766.57 376.23 765.94 385.36 763.64 394.3 761.65 403.24 758.32 411.14 754.03 417.8 750.06 424.52 745.05 430.13 739.24 434.53 733.62 439.23 727.04 443.03 719.73 445.87 712.47 449.36 704.38 452.16 695.73 453.97 687.07 456.47 678.69 457.53 670.99 457.13 663.34 456.85 656.46 454.78 650.76 451.06 645.22 447.19 640.97 441.65 638.4 434.78 636.05 427.81 635.44 419.65 636.91 410.61 638.6 401.58 642.17 392.54 647.16 383.87 652.26 375.14 658.71 366.67 666.06 358.85 673.44 350.91 681.69 343.63 690.38 337.56 699.08 331.61 708.21 327.16 717.31 324.86" stroke-dasharray="1 3" transform="rotate(82.5, 711, 400)" opacity="0.84"></path><path d="M713.83 337.77C724.29 336.64 740.71 343.67 746.21 350.85 749.47 356.21 751.55 362.49 752.32 369.23 753.14 376.04 752.74 383.21 750.97 390.34 749.39 397.47 746.67 403.89 743.13 409.43 739.79 415.02 735.57 419.84 730.7 423.78 725.96 427.94 720.48 431.41 714.47 434.07 708.51 437.14 701.95 439.56 695.04 441.06 688.13 442.99 681.52 443.72 675.51 443.29 666.88 442.16 654 433.37 650.49 425.94 648.73 420.59 648.34 414.19 649.58 406.98 650.96 399.77 653.83 392.43 657.82 385.31 661.9 378.17 667.05 371.22 672.92 364.81 678.83 358.39 685.43 352.56 692.37 347.74 699.32 343.06 706.6 339.58 713.83 337.77" stroke-dasharray="0 3" transform="rotate(86.625, 711, 400)" opacity="0.88"></path><path d="M710.19 350.68C720.94 348.73 729.39 352.23 734.35 359.22 739.3 366.72 740.94 376.95 738.29 387.63 736.07 398.31 730.26 407.41 722.58 413.89 715.18 420.89 705.55 426.1 695.18 428.15 684.81 431.17 675.64 430.15 669.37 425.73 663.3 421.35 660.4 413.23 662.25 402.45 664.45 391.66 670.98 380.3 679.71 370.64 688.55 361.08 699.44 353.55 710.19 350.68" stroke-dasharray="1 1" transform="rotate(90.75, 711, 400)" opacity="0.92"></path><path d="M706.6 363.59C716.52 363.17 726.69 376.17 725.62 386.51 724.13 393.63 720.13 400.06 714.84 404.89 709.67 409.95 703.06 413.76 696.14 415.24 686.23 416.7 674.5 407.47 674.93 397.6 676.41 390.43 680.72 382.89 686.48 376.54 692.31 370.29 699.49 365.43 706.6 363.59" stroke-dasharray="3 4" transform="rotate(94.875, 711, 400)" opacity="0.96"></path></g></svg>